<?xml version="1.0" encoding="utf-8"?>
<!-- Generator: Adobe Illustrator 15.0.0, SVG Export Plug-In  -->
<!DOCTYPE svg PUBLIC "-//W3C//DTD SVG 1.1//EN" "http://www.w3.org/Graphics/SVG/1.1/DTD/svg11.dtd" [
	<!ENTITY ns_flows "http://ns.adobe.com/Flows/1.0/">
]>
<svg version="1.1"
	 xmlns="http://www.w3.org/2000/svg" xmlns:xlink="http://www.w3.org/1999/xlink" xmlns:a="http://ns.adobe.com/AdobeSVGViewerExtensions/3.0/"
	 x="0px" y="0px" width="189px" height="116px" viewBox="0 0 189 116" overflow="visible" enable-background="new 0 0 189 116"
	 xml:space="preserve">
<defs>
</defs>
<g>
	<g>
		<path fill-rule="evenodd" clip-rule="evenodd" d="M106,116c-1,0-2,0-3,0c-3.426-3.907-9.994-4.673-12-10
			c7.414,0.586,10.526,5.474,15,9C106,115.333,106,115.667,106,116z"/>
		<path fill-rule="evenodd" clip-rule="evenodd" d="M87,116c-0.333,0-0.667,0-1,0c0-0.333,0-0.667,0-1c-2.714-1.953-6.491-2.842-7-7
			c3.68,1.32,4.72,5.279,10,5C88.91,114.576,86.45,113.783,87,116z"/>
		<path fill-rule="evenodd" clip-rule="evenodd" d="M32,0c-0.529,0.804-1.043,1.624-1,3c2.143,0.832,5.64,5.554,7,2
			c5.503,17.508,46.184,6.672,54,29c-2.198,2.213-3.322-1.753-6-2c0.442,3.558,3.62,4.38,5,7c-1.572,0.761-1.494,3.172-4,3
			c4.789,10.173,7.833,23.903-6,21c0.112-2.555,3.349-1.984,6-2c-1.204-3.049,0.984-4.568,1-8c-1.583-0.083-3.814,0.481-4-1
			c-2.934,0.85,1.301,2.517,0,5c-2.526-2.474-7.636-2.364-12-3c1.666-3.229,5.432-1.147,8,0c1.874-1.904,0.109-2.512,0-5
			c2.123,1.001,4.456,4.425,7,2c-1.406-3.928-2.694-7.973-7-9c-3,1.71-1.111,3.64-1,7c-7.123-4.555-12.014-8.229-24-6
			c-0.279,2.279,0.241,3.759,2,4c2.435-1.565,3.671-4.329,9-3c0.551,5.551-3.271,6.729-4,11c-8.406,1.734-15.703-2.696-16-12
			c-2.984,0.016-3.4,2.6-6,3c2.742,1.206,5.167,6.146,11,9c-6.085,0.407-11.36,1.533-14,1c-20.243-4.089-3.819-29.471,13-21
			c0.544,0.274-1.639,1.055-2,1c5.429,0.819,6.083,0.515,12,0c-10.598-5.449-27.344-5.971-37-1C19.092,42.959,7.878,50.41,8,61
			c0.023,2.057,2.056,1.785,3,5c0.716,2.439-1.74,10.38,2,8c0.011,5.493-1.863,12.013-1,18c4.057,5.553,7.467,14.896,11,24
			c-7.667,0-15.333,0-23,0C0,77.333,0,38.667,0,0c7.667,0,15.333,0,23,0c-0.757,3.757,2.617,3.383,4,5c2.715-0.91-1.019-3.504-1-5
			C28,0,30,0,32,0z"/>
		<path fill-rule="evenodd" clip-rule="evenodd" fill="#FFFFFF" d="M32,0c45.667,0,91.334,0,137,0c1.758,2.051-0.047,6.604-3,7
			c-0.091-2.729,1.666-2.013,0-4c-0.81,0.19-0.997,1.003-2,1c10.726,27.919-23.914,13.266-34,28c-2.007,0.34-3.129-0.205-3-2
			c-16.695,20.478-7.3,50.08-2,71c1.012,1.49,9.517,0.994,11,5c1.642-7.987-7.507-13.817-7-24c5.789-1.053,0.737-6.732,2-12
			c2.197,2.297,3.322,1.623,6,0c0.127-1.794-1.225-2.109-1-4c-2.483-1.85-7.446-1.221-8-5c1.232-1.434,3.438-1.895,6-2
			c-2.62-3.966-5.267-5.935-8-5c-2.751-7.3,8.797-8.378,13-12c-2.13,4.203-6.613,6.054-9,10c7.165-3.423,19.464-8.809,24,1
			c-4.66,3.943-5.834-4.128-9-5c-1.615-0.282-1.722,0.945-3,1c-0.01,4.343,1.99,6.676,3,10c-1.667,0-3.333,0-5,0
			c9.762,3.425,21.949,4.771,21-11c5.021,1.978,7.81,6.19,11,10c-2.984-0.016-3.4-2.6-6-3c-2.048,4.285-7.111,5.555-12,7
			c8.054,5.782,18.144,1.294,27,5c-3.532-1.376,0.241-6.012,2-8c-4.99-6.071-6.847-12.53-13-19c6.884,2.123,12.683,9.514,14,14
			c-0.443,1.454-0.878-0.102-2,0c-0.332,3.356,7.459,7.188,6,15c-4.061-0.282-2.257,0.365-2,3c-1.023-0.977-2.023-1.977-3-3
			c1.528,12.453,4.968,33.01-6,47c-14.667,0-29.333,0-44,0c-0.282-1.615,0.945-1.722,1-3c-1.597,2.069-6.103,1.231-8,3c-1,0-2,0-3,0
			c3.118-2.426,0.602-4.271,1-9c-3.087,2.913-7.41,4.59-9,9c-3,0-6,0-9,0c0-0.333,0-0.667,0-1c-4.474-3.526-7.586-8.414-15-9
			c2.006,5.327,8.574,6.093,12,10c-5.333,0-10.667,0-16,0c-0.55-2.217,1.91-1.424,2-3c-5.28,0.279-6.32-3.68-10-5
			c0.509,4.158,4.286,5.047,7,7c0,0.333,0,0.667,0,1c-21,0-42,0-63,0c-3.533-9.104-6.943-18.447-11-24
			c-0.863-5.987,1.011-12.507,1-18c-3.74,2.38-1.284-5.561-2-8c-0.944-3.215-2.977-2.943-3-5C7.878,50.41,19.092,42.959,23,35
			c9.656-4.971,26.402-4.449,37,1c-5.917,0.515-6.571,0.819-12,0c0.361,0.055,2.544-0.726,2-1c-16.819-8.471-33.243,16.911-13,21
			c2.64,0.533,7.915-0.593,14-1c-5.833-2.854-8.258-7.794-11-9c2.6-0.4,3.016-2.984,6-3c0.297,9.304,7.594,13.734,16,12
			c0.729-4.271,4.551-5.449,4-11c-5.329-1.329-6.565,1.435-9,3c-1.759-0.241-2.279-1.721-2-4c11.986-2.229,16.877,1.445,24,6
			c-0.111-3.36-2-5.29,1-7c4.306,1.027,5.594,5.072,7,9c-2.544,2.425-4.877-0.999-7-2c0.109,2.488,1.874,3.096,0,5
			c-2.568-1.147-6.334-3.229-8,0c4.364,0.636,9.474,0.526,12,3c1.301-2.483-2.934-4.15,0-5c0.186,1.481,2.417,0.917,4,1
			c-0.016,3.432-2.204,4.951-1,8c-2.651,0.016-5.888-0.555-6,2c13.833,2.903,10.789-10.827,6-21c2.506,0.172,2.428-2.239,4-3
			c-1.38-2.62-4.558-3.442-5-7c2.678,0.247,3.802,4.213,6,2C84.184,11.672,43.503,22.508,38,5c-1.36,3.554-4.857-1.168-7-2
			C30.957,1.624,31.471,0.804,32,0z M91,86c-7.072,0.402-12.986,12.155-12,14c5.279-2.518,8.445-6.396,16-4
			c3.294-4.425,6.619-6.864,6-13c-3.011-1.049-4.527-2.877-3-6C95.281,79.614,93.313,82.98,91,86z"/>
		<path fill-rule="evenodd" clip-rule="evenodd" d="M169,0c6.667,0,13.333,0,20,0c0,38.667,0,77.334,0,116c-4,0-8,0-12,0
			c10.968-13.99,7.528-34.547,6-47c0.977,1.023,1.977,2.023,3,3c-0.257-2.635-2.061-3.282,2-3c1.459-7.812-6.332-11.644-6-15
			c1.122-0.102,1.557,1.454,2,0c-1.317-4.486-7.116-11.877-14-14c6.153,6.47,8.01,12.929,13,19c-1.759,1.988-5.532,6.624-2,8
			c-8.856-3.706-18.946,0.782-27-5c4.889-1.445,9.952-2.715,12-7c2.6,0.4,3.016,2.984,6,3c-3.19-3.81-5.979-8.022-11-10
			c0.949,15.771-11.238,14.425-21,11c1.667,0,3.333,0,5,0c-1.01-3.324-3.01-5.657-3-10c1.278-0.055,1.385-1.282,3-1
			c3.166,0.872,4.34,8.943,9,5c-4.536-9.809-16.835-4.423-24-1c2.387-3.946,6.87-5.797,9-10c-4.203,3.622-15.751,4.7-13,12
			c2.733-0.935,5.38,1.034,8,5c-2.562,0.105-4.768,0.566-6,2c0.554,3.779,5.517,3.15,8,5c-0.225,1.891,1.127,2.206,1,4
			c-2.678,1.623-3.803,2.297-6,0c-1.263,5.268,3.789,10.947-2,12c-0.507,10.183,8.642,16.013,7,24c-1.483-4.006-9.988-3.51-11-5
			c-5.3-20.92-14.695-50.522,2-71c-0.129,1.795,0.993,2.34,3,2c10.086-14.734,44.726-0.081,34-28c1.003,0.003,1.19-0.81,2-1
			c1.666,1.987-0.091,1.271,0,4C168.953,6.604,170.758,2.051,169,0z M141,43c2.453,0.75,11.949-0.024,14-3
			C148.333,39.474,141.628,42.458,141,43z"/>
		<path fill-rule="evenodd" clip-rule="evenodd" d="M126,116c1.897-1.769,6.403-0.931,8-3c-0.055,1.278-1.282,1.385-1,3
			C130.667,116,128.333,116,126,116z"/>
		<path fill-rule="evenodd" clip-rule="evenodd" fill="#FFFFFF" d="M155,40c-2.051,2.976-11.547,3.75-14,3
			C141.628,42.458,148.333,39.474,155,40z"/>
		<path fill-rule="evenodd" clip-rule="evenodd" d="M98,77c-1.527,3.123-0.011,4.951,3,6c0.619,6.136-2.706,8.575-6,13
			c-7.555-2.396-10.721,1.482-16,4c-0.986-1.845,4.928-13.598,12-14C93.313,82.98,95.281,79.614,98,77z"/>
		<path fill-rule="evenodd" clip-rule="evenodd" fill="#FFFFFF" d="M23,0c1,0,2,0,3,0c-0.019,1.496,3.715,4.09,1,5
			C25.617,3.383,22.243,3.757,23,0z"/>
		<path fill-rule="evenodd" clip-rule="evenodd" d="M123,116c-2.667,0-5.333,0-8,0c1.59-4.41,5.913-6.087,9-9
			C123.602,111.729,126.118,113.574,123,116z"/>
	</g>
</g>
</svg>
