<?xml version="1.0" standalone="no"?>
<!DOCTYPE svg PUBLIC "-//W3C//DTD SVG 20010904//EN"
 "http://www.w3.org/TR/2001/REC-SVG-20010904/DTD/svg10.dtd">
<svg version="1.0" xmlns="http://www.w3.org/2000/svg"
 width="1280.000000pt" height="656.000000pt" viewBox="0 0 1280.000000 656.000000"
 preserveAspectRatio="xMidYMid meet">
<metadata>
Created by potrace 1.15, written by Peter Selinger 2001-2017
</metadata>
<g transform="translate(0.000000,656.000000) scale(0.100000,-0.100000)"
fill="#000000" stroke="none">
<path d="M142 6454 c-68 -59 -129 -117 -135 -131 -9 -21 -6 -29 39 -74 160
-164 471 -427 688 -581 78 -55 142 -103 143 -106 1 -4 -21 -18 -50 -31 -79
-37 -186 -149 -235 -246 -48 -96 -68 -160 -87 -280 -20 -124 -19 -231 7 -468
15 -139 22 -264 22 -402 0 -221 -13 -300 -74 -429 -34 -71 -35 -79 -17 -94 9
-8 32 -5 82 9 57 16 91 19 180 16 180 -7 277 -47 615 -249 315 -189 415 -229
603 -236 115 -4 118 -5 113 -26 -24 -98 -69 -527 -85 -811 -22 -382 -24 -472
-10 -480 7 -5 38 -9 68 -10 31 -1 126 -5 211 -9 252 -14 557 20 848 93 133 34
135 35 128 23 -3 -5 -10 -46 -15 -92 -13 -103 0 -230 36 -345 58 -184 122
-275 363 -516 254 -253 321 -352 352 -519 10 -54 22 -80 39 -80 5 0 38 30 73
67 146 153 292 202 716 238 244 21 316 32 419 61 158 46 266 122 342 239 l42
65 99 -147 c167 -247 366 -494 568 -706 88 -93 215 -201 229 -195 13 5 193
201 306 333 144 169 293 365 409 538 l99 147 46 -43 c139 -130 347 -227 566
-263 121 -20 264 -15 475 17 165 24 315 22 390 -5 25 -9 68 -33 97 -52 76 -52
89 -46 85 42 -8 149 35 310 113 430 22 32 119 140 216 239 182 186 257 285
301 393 18 47 22 76 23 167 l0 111 100 -13 c401 -52 1260 -82 1297 -45 6 6 6
17 -1 30 -6 12 -12 124 -14 283 -3 215 -9 302 -31 469 -24 180 -94 568 -111
610 -4 13 6 16 67 16 95 0 172 25 265 86 148 96 247 219 399 493 143 259 245
393 365 481 54 39 62 67 27 85 -73 37 -108 112 -108 229 0 37 13 148 30 246
16 98 30 199 30 224 0 119 -42 252 -106 335 -15 20 -25 37 -23 38 2 2 48 35
101 75 54 40 102 72 108 72 5 0 10 4 10 8 0 5 35 36 78 69 208 162 715 626
728 666 10 30 -20 47 -85 47 l-54 0 23 -25 23 -25 -64 -58 c-507 -464 -776
-685 -1081 -889 -306 -204 -642 -372 -933 -465 -203 -66 -253 -79 -394 -104
-78 -13 -161 -31 -185 -39 -24 -8 -51 -13 -59 -9 -14 5 -47 -19 -47 -34 0 -4
34 -45 76 -92 443 -499 723 -1142 833 -1915 19 -132 25 -205 51 -630 6 -93 13
-182 16 -196 l5 -27 -303 4 c-167 2 -382 8 -478 14 -954 58 -1652 274 -2235
689 -76 55 -102 79 -108 102 -9 34 -32 48 -50 30 -8 -8 -14 -90 -18 -259 -5
-185 -11 -275 -27 -357 -99 -536 -322 -1011 -728 -1556 -157 -210 -506 -642
-517 -640 -4 1 -77 75 -165 164 -384 394 -669 798 -917 1302 -203 413 -308
721 -430 1264 -42 185 -44 205 -30 220 19 22 19 45 0 61 -12 10 -42 -16 -187
-162 -407 -410 -846 -686 -1373 -865 -379 -128 -728 -183 -1169 -183 l-188 0
6 108 c36 564 57 801 97 1077 66 464 194 887 390 1295 79 164 408 719 426 720
22 0 34 35 19 55 -13 18 -17 18 -117 -1 -145 -27 -556 -27 -704 -1 -560 101
-1025 333 -1611 803 -88 71 -224 183 -303 249 l-142 120 28 22 c15 12 82 63
148 114 167 128 160 119 90 119 l-60 0 -123 -106z m11617 -935 c52 -78 62
-112 68 -235 4 -75 -1 -137 -18 -245 -31 -198 -31 -356 -1 -424 13 -27 32 -60
44 -72 l21 -23 -85 -88 c-94 -97 -165 -199 -283 -402 -220 -380 -363 -516
-591 -560 -99 -19 -104 -16 -131 70 -12 41 -23 78 -23 81 0 4 28 10 61 13 130
15 248 74 346 174 53 53 74 86 124 191 166 345 159 333 228 402 48 48 81 71
121 86 71 27 75 47 19 92 -87 70 -97 154 -47 370 52 225 43 409 -24 504 -11
16 -18 31 -14 34 11 12 131 92 138 92 3 1 25 -26 47 -60z m-10751 -32 l74 -46
-49 -25 c-91 -45 -162 -152 -197 -291 -33 -131 -40 -240 -41 -665 -1 -460 0
-454 -58 -532 -17 -22 -19 -33 -11 -46 9 -14 23 -16 75 -14 153 8 286 -50 554
-242 193 -138 297 -199 395 -232 77 -26 217 -24 288 3 28 12 52 18 52 15 -2
-24 -39 -184 -44 -189 -4 -4 -50 -6 -104 -6 -182 3 -312 53 -647 253 -214 127
-322 181 -428 210 -90 26 -215 35 -285 22 -47 -8 -52 -8 -47 7 28 71 55 198
65 295 11 126 9 168 -22 496 -44 463 5 723 170 901 54 59 167 143 181 135 3
-2 39 -24 79 -49z m10542 -112 c39 -103 39 -222 0 -406 -46 -221 -38 -329 32
-405 l19 -21 -44 -26 c-58 -35 -138 -123 -183 -203 -20 -35 -64 -127 -99 -204
-78 -173 -136 -256 -224 -321 -70 -52 -187 -103 -261 -114 l-45 -6 -48 131
c-26 73 -77 194 -112 271 -35 76 -62 139 -60 139 2 0 25 -13 52 -30 314 -195
692 1 693 360 0 133 -53 259 -155 369 -84 90 -153 133 -285 178 -9 3 4 13 35
25 151 60 394 183 570 289 44 27 83 45 86 41 4 -4 17 -34 29 -67z m-10274 -34
c155 -78 377 -167 499 -201 44 -12 81 -24 83 -25 4 -3 -104 -29 -123 -30 -5 0
-48 -19 -95 -41 -98 -48 -195 -118 -234 -169 -15 -19 -34 -35 -42 -35 -9 0
-14 -5 -12 -12 2 -6 -11 -37 -29 -67 -141 -235 -113 -512 72 -696 140 -141
331 -185 516 -120 117 42 289 169 408 304 35 39 65 70 67 68 2 -1 -24 -68 -57
-147 -69 -165 -154 -416 -195 -576 l-28 -110 -60 -18 c-198 -58 -352 -10 -643
203 -249 181 -377 244 -524 257 l-67 7 18 41 c32 70 43 169 36 305 -29 584
-16 783 64 947 42 86 144 181 196 184 6 0 74 -31 150 -69z m889 -290 c38 -7
37 -7 -30 -14 -38 -4 -94 -13 -123 -20 -29 -8 -55 -11 -57 -6 -3 4 -30 11 -60
14 -63 8 -72 22 -17 28 67 7 246 6 287 -2z m655 5 c0 -3 -28 -42 -63 -88 -34
-46 -84 -120 -111 -165 -27 -46 -53 -83 -57 -83 -5 0 -34 -23 -65 -51 -71 -64
-124 -88 -192 -89 -106 0 -172 60 -172 158 0 131 112 226 329 281 47 11 110
21 140 22 31 0 79 4 106 9 64 9 85 11 85 6z m-978 -55 c26 -9 48 -18 48 -21 0
-3 -22 -17 -49 -32 -48 -26 -50 -27 -115 -13 -36 8 -73 18 -83 23 -14 8 -12
12 17 27 55 29 104 44 120 38 8 -4 36 -13 62 -22z m9083 -31 c33 -15 80 -42
104 -60 l45 -33 -27 -19 c-36 -26 -25 -41 18 -24 l34 15 36 -55 c21 -31 35
-57 33 -58 -5 -5 -87 -46 -91 -46 -3 0 -10 21 -17 46 -26 93 -105 188 -210
254 -47 29 -8 19 75 -20z m-8701 -3 c-101 -70 -151 -184 -124 -282 33 -119
172 -192 298 -156 17 5 32 6 32 1 0 -17 -88 -127 -136 -169 -27 -24 -78 -58
-114 -75 -59 -28 -74 -31 -165 -31 -73 0 -112 5 -144 18 -113 46 -191 134
-212 240 -10 48 -9 67 5 121 22 79 49 124 115 191 55 56 133 102 216 129 58
18 195 44 244 45 l33 1 -48 -33z m8481 18 c133 -35 232 -111 281 -217 25 -55
29 -74 28 -148 -1 -98 -16 -140 -71 -201 -90 -100 -239 -120 -390 -54 -68 30
-196 106 -189 112 2 2 26 -3 53 -13 72 -25 186 -23 248 5 251 111 220 420 -53
517 l-37 13 35 1 c20 0 63 -7 95 -15z m-115 -52 c134 -45 215 -171 180 -278
-29 -87 -139 -165 -232 -165 -106 0 -236 81 -334 210 -31 41 -82 103 -112 138
l-54 62 58 0 c33 0 115 14 184 30 137 32 221 32 310 3z m-8968 1 c18 -9 53
-24 79 -33 l47 -16 -49 -54 -49 -55 -95 18 c-52 10 -97 22 -100 26 -3 4 3 17
13 28 16 20 113 102 120 102 2 0 17 -7 34 -16z m-128 -169 c41 -14 89 -25 106
-25 29 0 32 -2 25 -22 -4 -13 -13 -51 -22 -85 l-15 -61 -136 -4 c-76 -2 -138
-3 -140 -3 -12 7 90 225 105 225 1 0 36 -11 77 -25z m9705 -109 c12 -48 15
-164 5 -190 -5 -14 -10 -13 -42 3 -21 10 -52 22 -70 26 -30 6 -33 10 -27 33 3
15 7 49 9 76 4 47 6 51 47 72 24 13 49 23 55 24 7 0 17 -20 23 -44z m-9592
-184 c7 -26 12 -48 13 -49 0 -1 -19 -4 -42 -8 -24 -3 -91 -20 -151 -36 -59
-17 -112 -27 -117 -24 -6 3 -10 44 -10 91 l0 84 147 -5 147 -6 13 -47z m9508
-21 c22 -10 48 -25 59 -33 18 -14 18 -16 -3 -56 -12 -23 -35 -57 -52 -77 -30
-34 -32 -34 -59 -20 -16 8 -42 31 -57 50 -15 19 -31 35 -35 35 -20 0 -4 -34
37 -77 25 -25 45 -48 45 -50 0 -7 -105 -53 -121 -53 -18 0 -52 29 -87 75 l-23
30 6 -29 c3 -17 15 -42 26 -58 l20 -28 -48 0 c-67 0 -123 17 -155 47 -25 24
-30 52 -7 38 5 -4 9 -1 9 4 0 6 -11 11 -25 11 -18 0 -25 -5 -25 -20 0 -11 -5
-20 -11 -20 -17 0 -135 86 -158 116 -32 40 -25 47 17 19 20 -13 66 -37 102
-52 55 -23 80 -27 160 -27 79 -1 104 3 147 23 53 24 134 99 155 146 13 30 29
31 83 6z m-8687 -56 c-6 -14 -15 -25 -20 -25 -9 0 -4 14 15 38 15 19 18 14 5
-13z m-729 -78 c31 -29 65 -58 75 -64 18 -10 17 -14 -21 -70 -22 -33 -53 -90
-69 -127 -26 -61 -31 -66 -54 -61 -59 14 -176 86 -159 98 69 48 219 188 219
204 0 30 -36 8 -136 -84 -58 -54 -109 -99 -113 -101 -13 -4 -83 98 -107 156
l-23 57 116 17 c64 10 118 20 121 23 3 3 26 5 50 5 41 0 51 -5 101 -53z m471
-129 c-60 -54 -156 -126 -202 -149 l-37 -19 44 83 44 82 58 7 c32 3 74 13 93
22 50 22 50 20 0 -26z m-257 11 c31 -7 57 -17 57 -21 0 -4 -21 -46 -47 -93
-41 -74 -53 -87 -83 -95 -41 -12 -150 -13 -150 -2 0 12 78 143 113 189 18 23
37 41 42 38 6 -2 36 -9 68 -16z m2951 -1316 c4 -38 16 -117 27 -178 29 -154
24 -308 -13 -380 -15 -27 -39 -62 -55 -77 -94 -90 -259 -90 -335 0 -38 46 -51
95 -46 176 8 112 47 178 177 301 58 55 133 128 165 162 33 35 63 63 66 63 4 0
10 -30 14 -67z m3175 -306 c2 -7 25 -34 51 -62 86 -93 130 -196 130 -309 0
-91 -37 -145 -112 -166 -77 -22 -167 30 -213 121 -45 87 -73 250 -79 455 l-3
121 111 -74 c61 -41 113 -79 115 -86z m-3659 -137 c-4 -25 -4 -69 1 -98 37
-231 312 -300 489 -123 31 31 64 67 73 81 16 25 16 24 16 -40 2 -259 -155
-454 -375 -468 -107 -7 -174 17 -245 88 -70 70 -93 131 -93 245 1 59 7 99 27
153 23 66 104 218 112 210 2 -2 0 -23 -5 -48z m-106 -27 c-34 -57 -74 -152
-74 -178 0 -11 -62 -63 -109 -90 -39 -22 40 118 136 243 35 45 68 82 73 82 5
0 -7 -26 -26 -57z m4029 -91 c88 -131 120 -218 125 -334 4 -84 2 -99 -12 -104
-10 -4 -14 -13 -11 -23 3 -10 -9 -38 -27 -65 -82 -125 -212 -154 -350 -79
-128 70 -202 217 -214 422 -5 82 -4 84 9 49 55 -143 155 -217 279 -206 155 15
220 215 132 408 -22 48 -22 52 -5 35 10 -11 44 -57 74 -103z m232 -147 c23
-33 52 -79 64 -102 l21 -43 -32 1 c-18 0 -48 5 -67 12 -31 11 -35 18 -55 87
-22 75 -60 158 -99 215 -36 54 123 -108 168 -170z m-4430 136 c-83 -115 -145
-298 -145 -423 0 -83 26 -182 66 -258 21 -40 34 -76 30 -86 -4 -11 -2 -15 8
-11 8 3 34 -13 61 -38 61 -55 133 -91 220 -110 88 -18 132 -18 220 0 106 22
207 77 280 150 69 70 134 184 159 280 23 84 31 238 17 303 -21 101 2 75 49
-54 66 -183 158 -391 262 -596 l89 -176 -24 -49 c-87 -169 -230 -235 -557
-253 -96 -6 -220 -17 -275 -26 -112 -17 -273 -68 -363 -113 l-60 -30 -10 42
c-16 61 -63 129 -120 175 -28 21 -112 75 -188 118 -149 85 -231 155 -278 237
-74 126 -103 301 -85 514 5 70 11 128 12 128 1 1 52 21 112 45 127 50 404 189
485 242 30 20 58 37 62 37 5 1 -8 -21 -27 -48z m4447 15 c148 -61 319 -117
509 -165 102 -26 190 -51 197 -55 17 -10 15 -176 -2 -246 -45 -185 -151 -333
-356 -500 -149 -121 -202 -189 -216 -278 l-6 -40 -42 16 c-76 29 -225 22 -431
-22 -163 -35 -190 -38 -285 -33 -169 9 -323 66 -462 173 -32 25 -58 50 -58 56
0 6 15 39 34 72 69 124 190 410 243 576 3 8 12 -16 20 -55 32 -152 101 -274
219 -384 84 -78 182 -133 271 -151 241 -50 462 101 529 361 22 85 15 250 -14
339 -31 95 -105 218 -179 299 -35 39 -62 71 -59 71 3 0 43 -15 88 -34z m-748
-402 c24 -76 25 -84 11 -117 -8 -20 -15 -48 -15 -62 0 -39 -15 -30 -30 18 -44
142 -50 255 -22 382 l17 80 7 -110 c4 -76 14 -135 32 -191z m-3621 169 c3 -45
2 -53 -13 -53 -10 0 -44 -31 -75 -70 -31 -38 -60 -70 -64 -70 -9 0 3 114 18
165 10 35 18 43 69 66 31 14 58 23 59 20 1 -3 3 -30 6 -58z m5262 -16 l70 -12
7 -50 c10 -66 -6 -171 -37 -241 -40 -91 -109 -178 -280 -354 -89 -91 -176
-187 -194 -213 -83 -122 -141 -289 -141 -410 l0 -57 -42 21 c-106 54 -247 62
-483 29 -210 -31 -314 -34 -433 -16 -185 28 -403 119 -556 232 -61 44 -65 49
-53 68 8 12 26 42 41 68 l28 48 71 -61 c83 -70 220 -141 322 -165 108 -27 254
-23 405 10 188 41 247 49 336 44 67 -4 94 -10 148 -37 82 -40 101 -33 91 34
-15 98 33 173 192 298 162 128 238 214 311 354 59 113 84 214 84 335 0 95 1
98 22 93 11 -3 52 -11 91 -18z m-829 -87 c25 0 43 -52 52 -144 6 -68 18 -66
-110 -19 -42 16 -79 31 -82 34 -3 3 -1 41 6 85 l11 80 51 -18 c28 -9 60 -17
72 -18z m-5203 -51 c-23 -106 -21 -292 5 -390 29 -109 78 -204 141 -272 61
-66 119 -107 266 -189 170 -95 240 -173 252 -279 8 -82 20 -85 118 -33 185 99
313 131 570 144 246 13 299 19 375 42 139 43 258 126 301 210 11 21 21 38 24
38 2 0 15 -19 29 -42 l25 -42 -35 -66 c-79 -151 -232 -242 -477 -284 -45 -8
-172 -22 -282 -31 -357 -29 -511 -74 -667 -194 l-64 -49 -24 72 c-41 119 -124
231 -328 437 -199 202 -254 270 -312 394 -64 133 -83 226 -84 400 l-1 150 90
31 c50 18 91 31 92 30 2 -1 -5 -36 -14 -77z m787 55 c0 -8 11 -37 25 -65 l26
-50 -34 -42 c-36 -45 -107 -162 -107 -177 0 -5 -4 -11 -10 -15 -18 -11 -70
123 -70 184 0 15 26 51 78 106 74 79 92 91 92 59z m745 -146 c-9 -35 -28 -88
-42 -118 l-26 -55 -8 48 c-4 27 -12 62 -18 79 -10 28 -8 34 27 72 21 23 47 56
58 74 l19 34 3 -36 c2 -20 -4 -64 -13 -98z m-589 -66 c15 -9 15 -16 -9 -98
-36 -125 -67 -204 -79 -204 -23 0 -98 51 -127 87 l-30 37 21 35 c12 20 49 75
82 123 l61 86 32 -28 c17 -16 39 -33 49 -38z m4219 -1 c89 -39 90 -40 87 -73
-2 -36 -32 -138 -39 -138 -16 0 -127 67 -175 105 l-57 46 24 35 c13 20 27 44
30 55 8 23 8 23 130 -30z m-3748 -37 c24 -91 19 -117 -34 -168 -25 -25 -47
-45 -49 -44 -3 4 -35 221 -32 222 2 1 21 11 43 22 22 12 44 21 50 20 5 -1 15
-25 22 -52z m3115 -139 c-13 -128 -3 -133 27 -14 21 81 18 79 98 52 l52 -18
-6 -120 c-3 -66 -7 -122 -9 -124 -6 -6 -110 65 -155 106 -23 20 -61 66 -86
101 -44 62 -45 65 -39 119 3 30 11 64 17 75 10 19 14 17 61 -33 l49 -54 -9
-90z m-3467 132 l50 -13 3 -143 3 -143 -100 4 c-55 2 -105 8 -111 14 -7 7 -1
30 18 75 30 65 43 102 62 177 6 23 14 42 18 42 4 0 30 -6 57 -13z m220 -115
l22 -112 -51 -24 c-29 -14 -64 -28 -79 -31 l-27 -7 0 58 c0 33 3 96 7 141 l6
82 41 4 c23 2 45 3 50 2 5 -1 19 -52 31 -113z m3753 15 c42 -34 94 -73 114
-85 43 -27 42 -34 -18 -96 -38 -39 -91 -76 -110 -76 -14 0 -87 129 -115 203
l-22 58 34 29 c19 16 35 29 37 30 2 0 38 -28 80 -63z m-158 -64 c12 -38 39
-101 61 -142 22 -40 37 -76 35 -79 -12 -12 -148 -13 -196 -2 l-51 12 5 64 c20
216 14 194 49 195 18 0 41 4 52 9 11 5 21 9 22 9 1 1 11 -29 23 -66z"/>
<path d="M545 6522 c-67 -51 -95 -101 -95 -175 0 -72 17 -113 63 -154 62 -54
126 -63 207 -29 12 5 14 -2 12 -44 -8 -113 69 -200 177 -200 22 0 52 5 67 10
27 10 27 10 21 -26 -8 -48 8 -119 34 -156 55 -76 194 -90 248 -25 20 25 26 21
39 -27 30 -115 159 -171 267 -116 21 11 39 19 40 17 1 -1 7 -26 13 -56 20 -88
61 -131 144 -146 44 -8 118 21 164 66 l31 30 12 -40 c44 -147 218 -186 332
-75 l36 35 11 -43 c6 -24 22 -59 34 -78 28 -42 99 -80 148 -80 50 0 110 38
146 91 l30 45 27 -48 c46 -82 135 -122 232 -104 47 9 100 57 138 125 l31 55 7
-31 c3 -17 16 -48 28 -68 26 -45 26 -45 -1 -45 -59 -1 -145 -65 -167 -123 -13
-35 -14 -88 -2 -120 9 -24 8 -25 -46 -30 -123 -13 -203 -88 -211 -196 -3 -38
1 -76 11 -104 l15 -45 -34 -5 c-107 -18 -168 -161 -114 -266 l19 -39 -47 -6
c-164 -22 -229 -211 -116 -336 l34 -37 -41 -18 c-55 -25 -105 -86 -119 -145
-15 -61 5 -140 46 -183 14 -16 24 -29 23 -31 -2 -1 -23 -10 -46 -20 -144 -63
-165 -244 -40 -351 l41 -35 -35 0 c-141 0 -202 -179 -95 -279 l25 -24 -37 -27
c-106 -77 -157 -167 -157 -280 0 -87 20 -132 82 -192 75 -73 193 -99 281 -63
45 19 106 77 134 127 l21 37 40 -35 c70 -59 149 -69 234 -30 55 26 113 92 113
129 0 19 3 18 33 -11 38 -37 94 -62 139 -62 78 1 157 65 179 145 l11 37 36
-35 c74 -72 147 -82 225 -31 41 27 76 90 77 137 0 30 11 35 31 11 43 -52 157
-70 216 -34 46 27 64 61 70 128 l6 59 44 -25 c57 -31 133 -28 188 9 49 33 88
114 83 174 -3 37 -1 44 12 39 8 -4 38 -9 67 -11 98 -10 179 51 205 154 12 44
16 49 33 42 55 -21 145 -1 193 44 57 53 82 156 60 254 l-7 32 44 -45 c25 -24
52 -44 61 -44 12 0 10 -6 -10 -30 -61 -73 -56 -161 13 -223 l39 -35 -25 -24
c-62 -58 -85 -166 -50 -235 16 -30 64 -77 89 -85 10 -4 7 -15 -10 -46 -26 -47
-32 -125 -12 -163 32 -62 79 -95 163 -113 l27 -6 -20 -40 c-38 -74 -18 -193
43 -258 29 -31 90 -62 122 -62 30 0 29 2 9 -45 -18 -44 -20 -127 -4 -170 32
-83 117 -141 225 -152 l55 -6 -31 -34 c-39 -45 -49 -73 -49 -131 1 -82 55
-165 123 -191 16 -6 51 -11 78 -11 l49 0 -26 -52 c-89 -176 6 -379 179 -382
44 -1 47 -3 40 -21 -14 -40 -9 -159 10 -196 44 -89 130 -141 231 -142 162 -1
286 131 289 309 2 62 5 73 17 68 8 -4 36 -9 63 -12 156 -16 265 147 192 288
-15 30 -15 30 12 30 70 1 149 63 173 136 14 42 7 111 -14 153 l-15 28 49 6
c68 8 125 40 157 89 24 36 28 52 28 113 0 61 -4 77 -27 113 l-27 41 52 15
c105 30 170 116 169 224 0 57 -36 134 -69 147 -14 5 -7 12 35 32 127 60 158
204 66 312 -37 43 -40 51 -21 51 24 0 90 63 108 104 35 78 15 163 -54 223 -40
35 -44 43 -23 43 24 0 78 52 97 95 33 72 20 142 -37 198 l-28 29 24 18 25 19
6 -32 c19 -109 127 -189 233 -173 l41 7 -3 -46 c-5 -60 34 -141 84 -174 47
-32 137 -40 183 -17 35 19 35 18 45 -49 21 -149 212 -215 337 -116 l26 20 12
-59 c29 -144 163 -190 282 -95 l44 35 11 -43 c24 -93 74 -151 151 -173 48 -14
58 -14 108 1 38 11 68 28 94 54 l38 38 6 -55 c10 -95 66 -142 167 -142 64 0
120 23 173 70 21 18 39 31 41 29 1 -2 8 -23 15 -47 14 -49 60 -106 105 -129
48 -25 126 -21 179 10 25 15 54 39 65 54 l19 26 38 -42 c58 -64 106 -85 190
-85 84 0 131 21 192 87 99 107 92 263 -17 381 l-41 45 29 15 c41 21 98 87 112
131 7 20 10 62 8 91 -7 86 -50 135 -166 191 -2 0 12 22 32 47 82 107 43 253
-82 308 l-42 19 25 33 c30 39 55 107 55 149 0 120 -102 223 -227 230 -24 1
-43 2 -43 3 0 0 9 19 20 41 44 92 34 176 -28 245 -56 62 -129 84 -196 58 l-26
-10 20 40 c26 51 27 133 1 180 -26 50 -86 89 -147 96 l-51 6 5 67 c3 54 0 75
-16 107 -11 22 -28 46 -36 53 -24 20 -20 28 17 35 45 8 109 64 131 115 l19 40
36 -28 c121 -95 292 -48 347 95 l16 42 35 -23 c66 -46 158 -40 216 13 25 22
57 86 57 112 0 24 -1 24 41 3 23 -12 58 -18 106 -18 63 0 76 3 114 30 57 40
86 85 101 156 l12 58 27 -14 c124 -65 267 11 293 157 l7 37 37 -16 c116 -48
246 21 259 140 l5 43 77 -1 c62 0 84 4 118 24 66 38 103 103 103 182 0 37 1
38 26 29 43 -17 139 -12 197 10 132 50 213 186 193 325 -7 41 -10 45 -35 45
l-28 0 5 -69 c6 -82 -7 -124 -53 -179 -51 -58 -114 -86 -195 -85 -66 1 -144
26 -138 44 2 5 55 40 118 78 87 51 115 73 115 88 0 13 -23 40 -61 72 -58 48
-65 51 -115 51 l-54 -1 40 -32 c22 -18 53 -44 69 -58 l29 -25 -154 -94 c-85
-52 -269 -168 -409 -259 -728 -469 -1096 -650 -1522 -745 -253 -56 -531 -71
-765 -41 -169 23 -194 31 -307 102 -201 127 -478 256 -681 318 -49 16 -91 29
-93 30 -1 1 8 29 20 63 l21 61 56 -40 c31 -22 67 -50 81 -62 14 -12 30 -22 35
-23 6 -1 54 -27 108 -57 408 -228 940 -308 1414 -212 365 74 620 196 1358 650
464 286 548 339 552 351 2 7 -14 26 -36 43 -35 28 -47 32 -88 29 l-47 -3 48
-31 48 -31 -140 -87 c-77 -47 -142 -86 -145 -86 -2 0 -7 37 -10 83 -9 116 -22
157 -50 157 l-23 0 26 -130 27 -131 -126 -78 c-69 -42 -148 -90 -175 -106
l-49 -29 7 25 c32 113 39 165 40 274 1 136 -6 175 -32 175 -16 0 -17 -14 -17
-152 0 -128 -4 -169 -24 -254 l-25 -101 -100 -61 c-56 -33 -102 -59 -103 -58
-2 2 8 30 22 64 34 83 55 214 55 339 l0 104 30 10 c54 19 48 76 -7 62 -20 -4
-23 -1 -23 21 0 21 -5 26 -26 26 -23 0 -25 -3 -20 -25 6 -25 6 -25 -66 -25
-115 0 -250 20 -244 36 3 9 -2 14 -13 14 -11 0 -21 -4 -23 -10 -2 -6 -18 -6
-43 0 -22 5 -85 9 -140 9 l-100 0 45 -15 c105 -34 254 -66 379 -82 l133 -18
-93 -53 c-52 -29 -184 -111 -294 -181 -491 -313 -684 -394 -985 -416 -170 -12
-417 27 -655 103 -117 37 -464 170 -478 183 -5 4 -6 38 -2 74 l7 67 47 -27
c25 -15 56 -36 69 -47 12 -11 30 -22 40 -23 9 -1 74 -27 145 -58 400 -176 810
-193 1112 -47 105 50 166 106 206 186 56 114 37 229 -48 291 -72 53 -108 64
-205 63 -51 -1 -84 -3 -73 -6 76 -16 74 -13 34 -34 -73 -37 -129 -127 -129
-206 0 -100 94 -207 189 -215 50 -4 48 17 -3 36 -54 21 -111 81 -127 135 -32
108 69 221 200 221 35 0 102 -54 127 -101 51 -99 -36 -245 -190 -319 -62 -29
-224 -80 -256 -80 -24 0 -91 74 -118 131 -37 76 -47 156 -28 230 20 76 43 114
101 168 l45 41 -44 0 c-39 0 -48 -4 -74 -37 -124 -158 -118 -368 14 -500 l42
-42 -55 -7 c-30 -3 -91 -4 -135 -2 -77 5 -82 6 -109 39 -131 156 -125 363 14
500 l50 49 -41 0 c-33 0 -45 -6 -71 -35 -58 -67 -101 -176 -101 -260 0 -68 28
-157 70 -217 47 -70 47 -70 -112 -29 -160 42 -183 53 -210 104 -20 36 -23 57
-23 142 0 94 2 103 33 161 51 94 74 111 162 122 68 9 59 10 -99 11 -151 1
-186 -2 -275 -23 -170 -41 -166 -40 -166 -6 0 27 -3 30 -34 30 l-33 0 -6 -197
c-11 -452 -126 -731 -422 -1029 -343 -345 -825 -525 -1472 -550 -163 -6 -441
6 -585 26 -176 25 -492 214 -687 411 -295 297 -491 789 -491 1234 l0 105 -35
0 -35 0 0 -47 c0 -57 18 -269 25 -299 4 -19 -2 -22 -78 -33 -125 -17 -120 -20
-87 47 35 71 54 169 44 236 -11 81 -19 96 -54 96 -35 0 -36 -4 -13 -56 10 -25
17 -69 17 -119 1 -72 -3 -88 -32 -148 -20 -40 -43 -72 -55 -77 -21 -9 -170
-30 -210 -30 -17 0 -15 4 11 35 73 82 112 186 112 296 0 87 -5 99 -42 99 -28
0 -29 -1 -21 -32 4 -18 8 -71 7 -118 0 -72 -5 -94 -28 -144 -16 -32 -47 -78
-71 -102 l-42 -44 -153 0 -153 0 41 44 c82 89 125 225 106 337 -8 49 -11 54
-37 57 -28 3 -29 3 -20 -30 4 -18 8 -67 7 -110 0 -65 -5 -86 -32 -141 -19 -37
-52 -83 -81 -110 -49 -46 -49 -46 -107 -41 -100 9 -291 43 -326 58 l-33 14 43
7 c60 11 141 62 176 113 26 36 31 55 34 115 5 95 -8 127 -48 127 l-31 0 16
-30 c21 -41 19 -123 -4 -168 -41 -79 -107 -116 -207 -117 -80 0 -92 7 -130 71
-38 65 -42 137 -11 197 l25 48 -32 -3 c-44 -4 -61 -43 -61 -138 1 -90 21 -135
90 -199 75 -69 189 -110 373 -133 69 -8 92 -15 92 -26 0 -10 6 -12 23 -7 12 5
132 9 267 10 272 2 406 17 598 65 63 16 118 27 121 24 6 -5 52 -206 48 -210
-1 -1 -99 -10 -217 -20 -267 -23 -787 -26 -925 -6 -184 28 -419 87 -518 131
-23 10 -78 34 -122 52 -44 19 -145 71 -225 117 -256 148 -353 200 -425 228
l-70 28 50 14 c28 7 88 26 135 40 l85 27 -72 3 c-48 2 -98 -4 -151 -18 -97
-24 -91 -24 -85 0 5 17 0 20 -26 20 -26 0 -31 -4 -31 -24 0 -16 -7 -27 -20
-31 -23 -7 -27 -40 -7 -52 9 -5 17 -53 25 -143 7 -74 20 -174 30 -222 10 -49
14 -88 10 -88 -5 0 -49 17 -99 37 -70 29 -93 43 -101 63 -26 65 -49 221 -51
337 -2 106 -4 123 -18 123 -40 0 -31 -223 15 -382 13 -43 21 -78 17 -78 -3 0
-47 21 -99 46 l-94 45 -31 67 c-38 81 -47 173 -24 251 l15 51 -28 0 c-23 0
-29 -5 -34 -31 -14 -69 -6 -168 18 -234 13 -36 21 -65 19 -65 -4 0 -230 124
-306 167 -5 3 33 26 85 52 51 26 113 60 137 76 l45 30 -53 3 c-45 3 -61 -2
-108 -30 -71 -43 -135 -97 -127 -109 3 -5 -11 -2 -30 8 -35 16 -54 14 -42 -6
11 -18 161 -119 283 -192 539 -321 1302 -548 2018 -600 88 -7 165 -16 172 -21
7 -6 14 -5 18 3 5 8 30 10 79 6 100 -7 464 9 631 28 127 15 140 15 151 1 16
-22 37 -20 31 3 -4 16 6 20 79 32 l83 15 10 -23 c12 -27 11 -28 -54 -38 -22
-3 -114 -24 -205 -45 -651 -153 -1401 -132 -2077 60 -327 92 -623 215 -854
356 -152 92 -283 193 -473 366 l-59 54 81 57 c44 31 83 61 86 66 4 6 -46 10
-136 10 l-143 1 -50 -38z m188 -25 c-70 -73 -70 -75 -8 -155 l55 -70 -33 -24
c-50 -38 -73 -48 -112 -48 -56 0 -94 25 -117 77 -38 85 -2 176 89 226 44 23
150 50 162 40 3 -2 -14 -22 -36 -46z m7644 -39 c-30 -59 -32 -70 -32 -163 0
-81 4 -109 22 -147 12 -27 20 -48 18 -48 -3 0 -52 21 -111 46 -121 54 -129 63
-121 159 5 64 31 127 65 158 17 16 139 54 179 56 8 1 0 -24 -20 -61z m-249
-50 c-15 -40 -19 -70 -16 -120 2 -38 2 -68 0 -68 -1 0 -16 7 -32 15 l-30 16 0
99 0 99 38 4 c20 2 42 4 49 5 7 1 4 -17 -9 -50z m-6292 6 c22 -8 78 -33 125
-56 l86 -40 0 -121 c-1 -124 11 -197 44 -274 10 -24 14 -43 9 -43 -13 0 -274
92 -283 100 -10 9 -34 198 -43 338 -8 126 -8 125 62 96z m8780 -100 c-4 -69
-19 -153 -42 -241 -19 -74 -33 -142 -32 -150 2 -11 -39 -39 -132 -89 -74 -41
-138 -74 -142 -74 -4 0 2 26 13 58 30 85 44 240 33 340 l-10 83 71 44 c65 41
235 134 244 135 2 0 1 -48 -3 -106z m-8397 -98 l124 -73 -2 -79 c-2 -88 17
-165 55 -225 13 -21 24 -41 24 -43 0 -4 -263 62 -266 67 -1 1 -16 49 -33 107
-25 79 -34 131 -38 213 -3 60 -2 107 3 107 5 0 65 -33 133 -74z m9464 -11 c52
-108 -31 -209 -171 -210 -59 0 -66 2 -88 30 -13 17 -24 35 -24 40 0 9 245 172
261 174 3 1 13 -15 22 -34z m-10800 -28 c49 -42 115 -94 156 -124 10 -7 -32
-52 -62 -67 -69 -32 -134 -16 -175 44 -20 29 -23 44 -19 90 4 55 21 110 33
110 3 0 34 -24 67 -53z m9397 -19 c0 -74 -12 -162 -42 -315 l-22 -113 -110
-46 c-84 -36 -299 -114 -312 -114 -1 0 15 44 36 98 22 53 49 149 62 212 13 63
25 116 28 118 3 1 82 51 175 111 94 61 173 110 178 110 4 1 7 -27 7 -61z
m-7794 -88 c94 -43 109 -53 107 -72 -1 -13 -5 -52 -9 -88 -4 -47 -2 -77 10
-110 8 -24 14 -45 13 -47 -2 -1 -32 5 -68 13 -63 14 -66 17 -98 69 -42 70 -71
163 -71 231 0 30 1 54 3 54 2 0 52 -22 113 -50z m5695 -145 c-2 -44 -27 -125
-37 -125 -3 0 -21 11 -42 23 -132 83 -121 73 -112 109 5 18 14 52 20 75 l10
42 82 -38 82 -37 -3 -49z m3209 2 c0 -42 -5 -54 -33 -82 -61 -61 -133 -59
-201 6 -34 32 -38 41 -26 49 8 5 60 38 115 74 l99 64 23 -31 c17 -22 23 -45
23 -80z m-10284 83 c5 -5 60 -38 122 -73 l112 -64 -33 -49 c-43 -62 -93 -97
-127 -89 -50 12 -107 46 -121 72 -19 36 -18 109 4 166 19 48 26 54 43 37z
m1782 -85 c53 -14 159 -35 235 -47 l137 -23 0 -41 c0 -22 7 -63 15 -89 8 -27
12 -51 10 -53 -2 -3 -64 0 -137 7 -73 6 -140 11 -149 11 -24 0 -69 91 -77 157
-4 31 -11 56 -17 55 -17 -3 -17 -101 -1 -150 9 -25 15 -46 13 -48 -2 -2 -177
23 -221 32 -41 9 -79 94 -80 183 0 37 3 71 7 77 4 8 32 2 87 -17 44 -16 124
-40 178 -54z m6982 -13 c-25 -91 -65 -201 -105 -288 l-33 -72 -88 -16 c-70
-13 -254 -35 -254 -31 0 0 22 25 50 54 62 66 110 160 110 216 l0 42 98 42 c53
23 129 59 167 81 39 22 71 40 72 40 1 0 -7 -31 -17 -68z m-1498 -19 c92 -36
97 -39 91 -63 -8 -37 -39 -102 -61 -128 l-19 -24 -104 52 c-57 29 -105 53
-106 54 -2 1 6 20 17 41 12 23 20 59 20 87 l0 48 33 -14 c17 -8 76 -32 129
-53z m-4007 -50 c15 -43 29 -83 31 -90 3 -7 -20 -15 -65 -23 -103 -17 -111
-14 -137 50 -40 101 -40 101 46 121 41 9 80 17 87 18 6 1 23 -34 38 -76z
m-220 -5 c4 -24 14 -60 21 -82 8 -21 12 -42 8 -45 -3 -3 -49 -11 -102 -17 -84
-9 -99 -8 -116 5 -38 33 -70 136 -44 146 10 4 167 29 215 34 6 0 14 -18 18
-41z m6945 -58 c0 -117 -124 -194 -228 -141 -23 12 -46 30 -52 40 -9 17 4 28
123 100 149 91 157 91 157 1z m-9591 20 c61 -27 114 -50 118 -50 5 0 14 -4 21
-9 20 -12 -8 -63 -55 -98 -29 -23 -47 -28 -90 -28 -47 0 -56 4 -90 37 -32 33
-37 44 -41 96 -4 50 8 102 22 102 3 0 54 -22 115 -50z m2008 40 l63 0 0 -42
c1 -24 7 -61 15 -83 8 -22 15 -43 15 -47 0 -10 -170 -10 -224 -1 -34 5 -41 11
-62 57 -13 28 -24 69 -24 90 l0 39 77 -7 c42 -3 105 -6 140 -6z m373 -38 c0
-27 8 -64 18 -84 l19 -36 -36 -6 c-20 -3 -80 -6 -133 -6 l-96 0 -23 36 c-12
20 -24 58 -27 85 l-4 48 133 4 c74 1 137 4 142 5 4 1 7 -20 7 -46z m4714 14
c44 -13 93 -27 109 -30 24 -6 27 -11 27 -47 0 -50 -19 -129 -32 -129 -5 0 -6
-4 -3 -10 3 -5 14 -10 25 -10 22 0 38 42 47 123 6 56 7 58 32 53 75 -16 163
-26 218 -26 34 0 64 -3 66 -7 9 -17 -20 -121 -46 -166 -24 -40 -32 -47 -59
-47 -81 0 -406 83 -532 135 l-37 16 34 40 c19 22 40 60 47 84 7 25 15 45 17
45 3 0 42 -11 87 -24z m916 -23 c0 -5 -7 -32 -14 -61 -18 -65 -53 -127 -100
-171 -20 -19 -36 -41 -36 -49 0 -13 -24 -14 -155 -10 -86 3 -158 8 -161 10 -2
3 11 31 30 63 19 31 40 81 46 110 l11 52 87 6 c48 4 128 17 177 30 104 28 115
30 115 20z m-7652 -133 c72 -24 132 -49 132 -55 -1 -18 -68 -102 -105 -130
-48 -37 -113 -32 -158 14 -28 27 -32 38 -35 101 -5 79 3 123 21 118 7 -2 72
-23 145 -48z m6182 -17 c662 -247 1181 -633 1547 -1149 331 -466 530 -1024
572 -1599 20 -271 20 -286 2 -281 -9 3 -74 15 -146 26 -239 37 -492 101 -830
211 -104 34 -205 66 -223 71 -80 23 -433 152 -544 199 -517 217 -845 488
-1102 913 -87 144 -175 319 -227 451 -23 61 -73 170 -111 244 -38 74 -67 135
-66 135 10 6 145 56 153 56 5 1 21 -49 36 -110 92 -374 300 -731 599 -1030
281 -282 572 -457 986 -595 199 -67 1293 -377 1304 -370 24 15 -2 270 -51 497
-150 689 -555 1340 -1116 1792 -68 54 -123 102 -123 107 0 5 -7 9 -15 9 -12 0
-83 43 -260 159 -22 14 -47 28 -55 32 -8 3 -67 30 -130 61 -113 54 -299 130
-352 143 l-27 7 17 34 c19 41 17 41 162 -13z m2720 -52 c0 -113 -72 -191 -175
-191 -55 0 -97 23 -133 73 l-21 31 157 81 c103 54 160 78 164 71 4 -6 8 -35 8
-65z m-8430 -84 c0 -49 -74 -130 -129 -142 -100 -22 -195 96 -162 198 l11 34
140 -36 c115 -30 140 -39 140 -54z m2158 48 c12 -25 22 -48 22 -50 0 -3 -15
-5 -34 -5 -18 0 -76 -11 -128 -24 -270 -68 -575 -250 -833 -496 -44 -43 -86
-75 -92 -73 -8 3 -13 -3 -13 -14 0 -10 -27 -49 -61 -88 -391 -450 -664 -1122
-764 -1884 -19 -143 -19 -194 -2 -189 7 3 25 68 44 154 17 82 32 151 32 153 1
3 13 -19 27 -47 14 -29 48 -77 75 -106 l48 -53 -84 -28 c-100 -32 -126 -48
-108 -66 46 -46 671 153 1108 353 72 33 139 64 149 70 289 157 349 192 486
286 358 245 629 539 781 847 77 158 112 274 144 486 l6 37 49 -16 c28 -9 50
-19 50 -24 0 -4 7 -8 15 -8 16 0 21 -16 6 -22 -8 -3 -82 -192 -116 -298 -44
-136 -198 -429 -313 -595 -366 -530 -929 -886 -1791 -1134 -233 -68 -777 -199
-785 -190 -3 2 11 81 29 174 19 94 61 310 95 481 150 771 288 1167 537 1542
216 326 451 530 818 707 92 44 128 56 218 70 116 18 260 54 317 79 19 8 37 15
41 16 3 0 15 -20 27 -45z m3428 -4 c43 -16 91 -34 106 -40 l27 -10 -29 -71
c-44 -108 -38 -106 -167 -43 l-112 55 47 69 c26 37 47 68 48 69 0 0 36 -13 80
-29z m-5366 -65 c52 -9 109 -19 127 -21 l32 -6 -24 -67 c-32 -90 -68 -122
-135 -122 -81 0 -136 62 -140 160 -4 75 -2 83 23 77 12 -3 65 -13 117 -21z
m5680 -69 c114 -57 125 -64 122 -87 -5 -37 -48 -123 -74 -147 l-23 -21 -126
74 -126 75 44 84 c24 47 47 85 51 85 4 0 63 -28 132 -63z m2160 37 c23 -59 1
-138 -48 -170 -33 -21 -89 -21 -130 0 -31 16 -72 68 -72 91 0 6 28 20 63 33
34 12 85 33 112 46 64 31 64 31 75 0z m-5803 -62 c45 -66 50 -78 35 -84 -63
-24 -196 -58 -201 -51 -3 5 -21 15 -39 22 -33 14 -92 76 -92 98 0 12 13 17
140 53 41 12 79 26 85 31 5 5 11 9 15 9 3 -1 28 -35 57 -78z m-1615 45 l148
-12 -29 -60 c-42 -89 -78 -118 -149 -123 -55 -4 -61 -2 -96 28 -42 37 -70 87
-80 143 -8 44 -23 42 206 24z m695 -35 c-81 -43 -188 -116 -262 -176 l-31 -25
-49 23 c-79 37 -135 112 -135 181 l0 25 173 1 c94 1 204 5 242 9 39 4 88 7
110 8 39 2 38 1 -48 -46z m4377 -189 c249 -143 420 -267 580 -423 217 -211
295 -334 477 -762 95 -222 137 -310 193 -403 19 -33 34 -60 33 -62 -2 -1 -52
19 -113 46 -60 27 -194 77 -299 111 -583 189 -741 254 -920 381 -232 165 -454
434 -590 714 -59 121 -105 222 -105 229 0 5 115 86 124 86 2 0 10 -26 16 -57
27 -132 128 -343 222 -467 190 -246 442 -439 643 -491 202 -52 385 53 385 221
0 128 -85 273 -264 449 -264 260 -510 428 -730 496 l-74 23 41 47 41 48 106
-56 c58 -31 163 -90 234 -130z m-3692 48 l37 -24 -120 -58 c-67 -33 -126 -59
-133 -59 -6 0 -30 9 -53 19 -44 20 -61 44 -74 99 l-7 34 76 35 c42 20 99 43
126 53 l50 17 30 -46 c17 -25 48 -57 68 -70z m5738 54 c0 -132 -141 -215 -260
-155 -35 18 -100 94 -89 104 2 2 49 16 104 30 55 13 127 34 160 44 86 28 85
28 85 -23z m-1602 -39 c48 -30 106 -68 129 -85 l41 -30 -20 -68 c-23 -80 -58
-163 -67 -163 -3 0 -46 32 -96 72 -49 39 -114 87 -143 106 l-53 35 35 36 c36
38 76 109 76 136 0 8 2 15 5 15 3 0 45 -24 93 -54z m-3778 -50 c0 -6 -26 -22
-58 -35 -336 -142 -775 -514 -1001 -849 -59 -88 -130 -238 -137 -292 -19 -139
90 -182 310 -125 448 116 796 438 1054 973 29 61 56 112 59 112 3 0 22 -12 44
-27 l39 -28 -6 -70 c-30 -331 -252 -630 -637 -860 -60 -35 -100 -53 -110 -49
-11 4 -17 1 -17 -8 0 -18 -155 -93 -486 -232 -283 -120 -467 -211 -590 -291
-47 -30 -86 -55 -88 -55 -2 0 11 36 29 80 19 44 62 164 95 267 91 277 136 396
196 513 232 457 620 789 1154 989 l105 40 23 -21 c12 -12 22 -26 22 -32z
m2935 13 l49 -15 -47 -27 c-57 -34 -95 -82 -118 -150 -14 -42 -19 -48 -25 -32
-4 11 -15 42 -26 68 -10 26 -18 55 -17 65 0 18 121 124 129 113 3 -4 27 -13
55 -22z m1398 1 c32 -5 103 -12 158 -16 l99 -7 10 -39 c15 -54 3 -105 -35
-147 l-33 -35 -98 85 c-55 47 -121 103 -149 124 -73 57 -74 58 -40 51 17 -4
56 -11 88 -16z m647 -25 c0 -110 -98 -187 -200 -156 -55 16 -89 48 -116 105
l-24 51 83 8 c67 7 130 16 250 36 4 0 7 -19 7 -44z m-5697 -14 c17 -49 65
-101 93 -101 21 0 17 -16 -8 -27 -13 -6 -61 -39 -107 -74 -45 -35 -91 -70
-100 -76 -14 -11 -24 -8 -59 18 -49 36 -106 114 -98 134 4 13 241 175 255 175
3 0 14 -22 24 -49z m821 -79 l75 -73 -42 -89 c-23 -49 -45 -89 -48 -90 -4 0
-10 12 -13 26 -9 35 -82 111 -131 136 -22 12 -62 26 -90 32 l-49 11 99 63 c55
34 105 61 112 59 6 -1 45 -35 87 -75z m3041 36 c65 -32 80 -48 48 -48 -35 -1
-103 -39 -154 -87 -74 -69 -109 -146 -111 -242 0 -23 -2 -41 -4 -41 -2 0 -24
41 -50 91 -44 88 -45 93 -35 140 22 102 80 173 166 203 58 21 67 20 140 -16z
m-4549 12 l27 -11 -64 -67 c-35 -37 -83 -89 -106 -117 -41 -49 -41 -50 -62
-31 -27 25 -44 79 -36 116 9 39 51 89 90 106 36 16 114 18 151 4z m5465 -93
c135 -108 149 -122 149 -153 -1 -71 -68 -271 -89 -262 -4 2 -42 41 -83 88 -42
47 -94 100 -117 118 l-41 33 39 77 c21 42 44 94 50 115 7 20 16 37 19 37 4 0
37 -24 73 -53z m-686 -65 c94 -71 125 -97 125 -103 0 -4 -29 -9 -64 -11 -82
-7 -161 -43 -226 -104 -65 -60 -89 -102 -115 -191 l-21 -73 -54 70 -53 71 2
77 c4 157 105 286 248 317 18 3 35 11 39 16 7 11 30 -2 119 -69z m1298 54 c3
-8 -1 -17 -10 -20 -20 -8 -25 -3 -17 18 8 20 20 21 27 2z m-5605 -138 l45 -47
-75 -73 c-98 -96 -193 -209 -263 -313 -63 -95 -55 -93 -142 -33 -45 30 -99
109 -90 132 3 7 42 59 87 115 l82 101 29 -39 c37 -52 95 -91 136 -91 47 0 41
15 -14 36 -49 19 -123 84 -123 108 0 8 52 64 117 125 l116 112 25 -43 c14 -24
45 -64 70 -90z m3508 75 c3 -16 10 -40 14 -55 8 -26 4 -31 -73 -87 l-82 -59
-17 49 c-30 88 -31 85 57 134 44 24 83 44 87 44 4 1 10 -11 14 -26z m-2668 -9
c34 -17 62 -40 80 -67 31 -48 62 -112 62 -130 0 -14 -114 -204 -135 -226 -12
-13 -15 -12 -21 5 -54 163 -171 265 -323 280 l-61 7 106 78 106 79 67 0 c52 0
79 -6 119 -26z m4827 -5 c55 -16 92 -44 115 -89 32 -64 21 -152 -25 -190 -16
-13 -22 -9 -69 45 -28 33 -84 94 -124 136 l-73 77 33 10 c75 24 92 25 143 11z
m-6392 -90 c20 -5 37 -12 37 -14 0 -2 -30 -47 -66 -102 -36 -54 -74 -114 -84
-134 -19 -36 -49 -53 -76 -42 -22 8 -54 86 -54 132 0 117 118 195 243 160z
m2107 -24 c51 -25 70 -41 70 -55 0 -36 -22 -120 -31 -120 -17 0 -104 47 -121
66 -13 15 -15 31 -11 82 3 34 10 62 15 62 5 0 40 -16 78 -35z m4020 -186 c6
-11 2 -45 -11 -100 -25 -97 -48 -154 -91 -226 l-31 -52 -55 97 c-30 53 -74
125 -98 160 -24 35 -44 65 -44 66 0 2 15 27 34 55 35 51 59 115 71 185 l6 39
105 -104 c58 -57 109 -111 114 -120z m-1813 72 l33 -73 -21 -29 c-23 -32 -66
-58 -117 -70 -38 -8 -35 -11 -88 127 l-23 61 82 49 c78 47 82 49 91 29 5 -11
24 -53 43 -94z m1053 -35 c0 -1 -18 0 -39 2 -167 16 -342 -163 -353 -362 l-3
-49 -75 60 c-41 34 -87 74 -102 90 -25 26 -26 31 -17 76 12 68 64 160 116 208
63 58 138 89 228 96 42 3 78 10 81 15 4 6 164 -126 164 -136z m-1528 27 c486
-913 442 -2033 -121 -3118 -94 -182 -252 -447 -316 -532 -25 -34 -67 -81 -93
-104 -45 -39 -100 -74 -107 -67 -2 2 -48 95 -102 208 -131 271 -253 498 -442
820 -325 556 -429 804 -487 1155 -25 149 -25 506 0 685 33 241 98 528 143 634
14 34 48 120 74 191 l48 130 53 -4 c29 -1 55 -5 57 -6 6 -7 -102 -255 -111
-255 -5 0 -7 -4 -4 -9 3 -5 -9 -56 -28 -112 -18 -57 -39 -129 -46 -159 -7 -30
-19 -60 -27 -67 -9 -7 -11 -13 -3 -18 5 -3 8 -9 6 -13 -12 -20 -47 -276 -56
-407 -37 -549 118 -1094 498 -1760 159 -279 464 -745 486 -745 16 0 124 156
219 318 301 508 489 1080 538 1632 14 166 6 543 -15 686 -47 316 -127 582
-255 850 -34 70 -60 128 -59 129 4 3 81 23 93 24 6 1 31 -38 57 -86z m-2516
25 c27 -15 67 -45 87 -67 66 -73 106 -178 76 -197 -6 -3 -9 -19 -5 -35 5 -25
-4 -39 -82 -120 l-87 -92 -7 60 c-18 163 -150 288 -317 302 l-74 6 94 89 94
88 85 -4 c66 -3 96 -10 136 -30z m2322 -3 c11 -23 9 -27 -26 -50 -43 -28 -105
-44 -149 -38 -24 4 -32 12 -40 38 l-11 33 97 20 c53 10 101 20 107 21 6 0 16
-10 22 -24z m-1540 -94 c25 -13 42 -28 39 -35 -3 -6 -13 -40 -22 -74 -20 -70
-31 -75 -100 -43 -83 39 -82 36 -50 135 l28 86 31 -24 c17 -12 50 -33 74 -45z
m1309 -109 c139 -472 187 -807 153 -1067 -5 -38 -12 -92 -15 -118 -8 -80 -70
-342 -129 -546 -31 -106 -56 -194 -56 -197 0 -2 -8 -4 -17 -4 -13 0 -15 -3 -5
-8 18 -12 -76 -303 -100 -310 -20 -5 -24 -18 -6 -24 8 -3 5 -26 -11 -77 -12
-41 -26 -70 -31 -65 -9 10 -265 583 -352 787 -58 137 -130 343 -143 405 -4 20
-3 32 4 32 6 0 11 5 11 10 0 6 -6 10 -14 10 -18 0 -32 64 -53 230 -37 302 17
690 124 904 37 74 162 211 170 188 3 -7 0 -19 -6 -26 -38 -45 -107 -295 -137
-496 -22 -142 -25 -476 -5 -635 55 -460 201 -733 374 -701 122 23 173 141 198
461 26 338 -30 755 -170 1260 -22 77 -37 142 -35 144 4 4 109 16 174 19 24 2
27 -5 77 -176z m-607 158 l64 0 -49 -44 c-42 -36 -54 -42 -75 -35 -14 4 -59
13 -100 19 -41 6 -76 13 -78 15 -3 2 -1 16 2 31 l7 27 82 -7 c45 -3 111 -6
147 -6z m305 -10 c-2 -4 7 -47 21 -95 14 -48 23 -89 21 -91 -1 -2 -21 1 -42 7
-48 14 -123 6 -166 -16 l-32 -17 7 29 c13 50 69 164 89 178 20 14 111 19 102
5z m661 -222 c24 -59 52 -139 64 -178 l21 -71 -23 -19 c-38 -33 -162 -91 -205
-97 l-39 -5 -35 143 -35 144 61 6 c33 3 69 10 80 16 26 14 70 63 78 85 11 30
-12 30 -41 0 -44 -48 -92 -72 -143 -72 l-45 0 -28 98 c-16 53 -30 102 -32 107
-3 6 24 10 69 10 63 0 79 4 113 26 l39 27 29 -56 c16 -31 48 -105 72 -164z
m2894 170 c69 -48 92 -153 48 -218 -13 -19 -28 -35 -34 -37 -6 -2 -28 22 -49
54 -21 32 -57 83 -80 113 -61 81 -60 79 -23 95 49 21 100 18 138 -7z m-1205
-40 c20 -24 48 -62 62 -86 24 -41 57 -132 47 -132 -3 0 -18 10 -35 22 -47 35
-151 38 -222 5 -71 -32 -100 -73 -105 -149 -3 -42 0 -65 12 -83 12 -18 13 -25
4 -25 -16 0 -141 64 -181 92 -29 21 -29 23 -25 92 13 192 138 301 350 305 55
1 58 0 93 -41z m-2720 -19 c3 -3 -8 -32 -25 -65 -16 -32 -30 -64 -30 -70 0
-28 -27 -34 -101 -24 -40 6 -77 14 -81 18 -6 6 17 94 46 178 3 8 32 5 95 -10
50 -12 93 -24 96 -27z m1684 -56 l60 -92 -41 -35 c-22 -20 -63 -43 -89 -51
-50 -17 -65 -35 -29 -35 31 0 118 36 154 63 l33 25 41 -52 c23 -28 57 -66 76
-85 l34 -33 -21 -26 c-69 -81 -86 -98 -126 -124 -25 -15 -49 -28 -53 -28 -15
0 -147 211 -213 342 -36 70 -65 129 -65 131 0 3 18 8 39 12 44 7 131 58 131
76 0 17 0 17 69 -88z m1867 -70 c105 -138 101 -127 70 -224 -35 -108 -93 -231
-146 -308 -23 -35 -43 -61 -45 -59 -3 3 -109 254 -152 360 -15 35 -14 37 15
80 45 66 88 156 112 237 l23 73 26 -32 c14 -18 58 -75 97 -127z m-5259 92
c108 -32 179 -112 208 -238 9 -40 19 -80 21 -89 7 -25 -182 -154 -297 -202
l-36 -15 10 39 c8 27 7 53 -1 92 -25 111 -105 180 -212 182 -35 1 -56 5 -52
11 10 18 75 99 135 168 l59 67 57 0 c32 0 80 -7 108 -15z m-1222 -25 c11 -9 5
-29 -34 -109 -27 -54 -53 -113 -59 -131 -15 -41 -29 -36 -70 26 -29 42 -33 55
-30 95 6 55 39 106 82 125 33 15 89 12 111 -6z m390 -31 c21 -45 95 -116 132
-125 13 -4 23 -8 23 -10 0 -3 -121 -247 -125 -252 -5 -6 -92 32 -122 55 -18
13 -45 44 -59 70 -23 37 -26 50 -18 72 13 34 136 231 145 231 3 0 14 -18 24
-41z m1847 -38 c43 -14 44 -9 -24 -153 -45 -97 -54 -102 -129 -76 -38 13 -108
59 -109 71 0 5 20 36 44 70 24 34 55 83 70 109 l28 48 41 -29 c23 -15 59 -34
79 -40z m1081 2 c40 -15 49 -22 57 -53 14 -54 50 -204 50 -212 0 -3 -26 8 -57
25 -97 53 -216 40 -294 -30 -36 -33 -39 -34 -39 -13 0 40 41 225 55 246 34 52
138 69 228 37z m-501 -73 l36 0 -14 -47 c-35 -115 -56 -271 -61 -452 l-6 -183
-71 4 c-49 3 -91 13 -130 31 l-59 27 7 63 c9 80 45 237 55 237 4 0 30 -7 57
-15 55 -17 144 -20 144 -5 0 10 -18 15 -90 25 -25 3 -60 10 -78 16 -27 9 -32
15 -27 32 4 12 26 85 51 163 l44 141 52 -18 c29 -10 69 -18 90 -19z m2893 -41
c41 -25 55 -39 55 -57 0 -42 -38 -100 -83 -127 -48 -28 -137 -45 -137 -26 0 6
-9 11 -20 11 -11 0 -34 13 -52 29 -88 78 3 219 134 208 30 -3 67 -16 103 -38z
m1387 -11 c84 -59 82 -184 -5 -275 l-31 -33 -47 91 c-27 50 -62 114 -79 144
l-30 53 27 20 c16 11 37 22 48 25 32 8 87 -3 117 -25z m-6101 -82 c21 -15 46
-44 59 -71 20 -40 21 -55 15 -121 -6 -72 -8 -75 -38 -88 -97 -40 -238 -51
-283 -22 -43 29 -50 59 -29 119 24 68 80 180 97 194 36 30 125 24 179 -11z
m1096 -68 c24 -7 43 -16 43 -21 0 -8 -95 -150 -134 -200 -12 -16 -22 -18 -56
-12 -54 9 -149 57 -184 94 l-29 30 34 28 c19 15 67 59 108 99 l74 71 51 -38
c27 -21 69 -44 93 -51z m4630 -99 c48 -86 53 -102 41 -112 -9 -7 -32 -52 -53
-102 -74 -178 -116 -271 -139 -309 l-24 -40 -45 70 c-24 38 -63 107 -86 152
l-42 84 38 51 c73 98 135 217 173 331 l22 69 30 -47 c16 -26 54 -92 85 -147z
m-6517 145 c0 -28 113 -131 158 -145 23 -7 42 -14 42 -16 0 -5 -102 -317 -105
-321 -2 -2 -31 10 -66 26 -49 22 -78 45 -125 98 l-61 69 37 85 c84 195 120
256 120 204z m-348 -22 c8 -8 -2 -50 -35 -147 -25 -75 -47 -139 -50 -142 -18
-17 -107 48 -133 98 -52 102 36 216 159 206 27 -2 53 -9 59 -15z m3492 -36
c76 -44 101 -82 115 -172 7 -43 15 -95 18 -114 l6 -35 -24 22 c-53 48 -147 70
-234 54 -67 -13 -160 -53 -193 -84 l-24 -22 4 134 3 133 53 49 c29 27 67 53
85 59 53 16 142 5 191 -24z m1594 -21 c35 -31 94 -77 131 -102 36 -26 68 -48
70 -50 2 -2 -13 -28 -34 -59 -40 -58 -84 -93 -171 -137 l-51 -26 -55 57 c-64
66 -168 192 -168 204 0 4 7 8 15 8 47 0 185 109 185 145 0 23 8 19 78 -40z
m-848 -114 c17 -82 30 -158 28 -168 -8 -45 -212 -117 -283 -99 -22 6 -25 12
-25 47 0 23 -7 89 -16 146 -8 58 -13 107 -11 109 2 2 30 9 63 15 65 12 154 52
180 81 10 10 20 18 24 18 4 0 22 -67 40 -149z m-2359 -7 c38 -40 137 -103 175
-110 19 -3 34 -11 34 -16 0 -6 -35 -47 -79 -91 l-79 -80 -82 23 c-84 24 -174
72 -222 117 l-27 26 90 53 c49 29 104 65 122 78 18 14 35 26 38 26 3 0 16 -12
30 -26z m2792 -247 c32 -43 73 -95 93 -116 33 -37 34 -41 25 -80 -13 -58 -36
-90 -79 -108 -31 -13 -45 -13 -87 -3 l-51 12 -12 139 c-11 119 -38 310 -58
397 -3 15 20 -16 53 -68 32 -52 84 -130 116 -173z m-2217 151 c-9 -51 -21
-151 -27 -223 -17 -211 -19 -218 -56 -228 -47 -14 -118 24 -161 85 l-34 48 79
104 c43 57 107 151 143 209 36 58 66 104 68 102 2 -2 -3 -45 -12 -97z m4970
53 c65 -30 89 -72 89 -158 0 -65 -3 -75 -31 -110 -29 -35 -96 -82 -119 -83 -6
0 -16 19 -23 43 -7 23 -36 98 -63 168 -27 69 -49 128 -49 132 0 30 137 35 196
8z m-1845 -144 c10 -4 8 -10 -11 -23 -24 -18 -125 -104 -242 -205 l-57 -49
-88 73 c-48 41 -99 86 -112 101 -23 24 -23 26 -5 26 62 0 205 105 238 174 l16
34 123 -63 c68 -34 130 -65 138 -68z m1430 -60 l28 -68 -23 -93 c-52 -204
-186 -392 -365 -510 -110 -74 -94 -73 -286 -17 -141 40 -165 50 -140 55 164
36 302 112 408 225 47 50 48 51 72 35 14 -9 32 -14 40 -10 19 7 19 40 0 56
-22 18 -19 36 15 85 48 69 117 222 141 310 12 44 24 87 26 95 5 15 27 -29 84
-163z m-6797 91 c45 -79 119 -137 188 -147 l37 -6 -40 -115 c-21 -63 -52 -143
-69 -178 l-30 -63 -59 67 c-33 36 -81 97 -106 134 l-47 68 27 84 c43 130 66
188 74 188 3 0 15 -15 25 -32z m1410 -36 c67 -63 137 -103 214 -123 l64 -16
-94 -75 c-119 -97 -228 -174 -333 -238 l-84 -51 -94 39 c-109 46 -184 92 -285
175 l-73 60 167 70 c155 64 168 68 177 50 21 -40 135 -141 188 -166 77 -36
135 -49 149 -32 13 15 9 18 -45 35 -73 23 -177 83 -226 131 -49 48 -60 69 -36
70 6 0 66 26 132 59 66 32 122 59 124 59 2 1 27 -21 55 -47z m1938 -4 l76 -36
6 -64 c3 -34 8 -93 11 -130 l5 -67 -57 26 c-121 56 -271 39 -377 -42 l-44 -33
-6 46 c-3 26 -9 90 -12 143 l-7 95 42 33 c105 83 229 93 363 29z m-3662 24 c0
-13 -80 -326 -85 -330 -7 -8 -64 32 -84 58 -67 91 -33 213 74 261 42 19 95 25
95 11z m5890 -88 c80 -27 147 -50 149 -51 8 -5 -84 -116 -138 -165 -49 -45
-226 -168 -241 -168 -10 0 -204 118 -233 142 l-28 23 118 92 c65 51 138 112
163 136 25 25 50 43 55 42 6 -1 76 -24 155 -51z m-1505 14 c7 -44 25 -245 25
-285 0 -32 -1 -32 -97 -63 -72 -23 -119 -32 -178 -33 -80 -2 -80 -2 -78 23 1
14 5 91 9 173 l7 147 72 0 c80 0 161 21 197 50 32 26 36 25 43 -12z m-1548
-83 c34 -14 89 -28 122 -31 l60 -7 6 -46 c8 -66 25 -171 31 -204 l6 -29 -49 7
c-88 12 -157 27 -210 47 l-53 19 0 141 c0 108 3 139 13 135 6 -3 40 -17 74
-32z m3362 -31 c171 -53 292 -99 423 -161 l117 -56 -22 -29 c-35 -48 -161
-144 -239 -182 -60 -30 -204 -76 -243 -79 -16 -1 -215 66 -215 73 0 3 30 21
68 39 94 46 178 109 246 181 71 78 90 106 82 125 -8 23 -26 10 -81 -59 -95
-117 -333 -276 -391 -262 -45 12 -234 98 -234 107 0 5 4 9 9 9 5 0 44 23 87
51 85 56 218 185 249 242 11 21 22 37 24 37 3 0 57 -16 120 -36z m1015 -179
c52 -174 77 -295 61 -295 -7 0 -25 -29 -41 -65 -38 -91 -113 -155 -202 -176
-26 -6 -32 -4 -28 7 3 7 1 16 -4 19 -5 3 -12 -4 -15 -15 -4 -12 -12 -19 -18
-17 -7 3 -72 22 -144 43 -73 21 -133 40 -133 43 0 3 27 21 60 39 177 97 325
282 391 490 13 42 26 67 30 60 4 -7 23 -67 43 -133z m406 83 c58 -30 90 -78
90 -135 0 -24 -7 -57 -14 -72 -18 -33 -81 -91 -101 -91 -7 0 -20 -2 -28 -5
-11 -5 -18 14 -32 77 -10 46 -28 118 -40 160 -20 69 -21 77 -6 81 40 11 90 5
131 -15z m-7397 -45 c19 -32 63 -91 96 -131 l61 -72 -16 -31 c-27 -53 1 -78
46 -41 23 19 24 18 109 -50 52 -42 131 -92 204 -128 117 -58 119 -60 91 -71
-16 -6 -71 -26 -122 -46 l-93 -35 -55 18 c-153 48 -323 194 -404 346 l-31 58
33 120 c18 66 35 120 39 120 3 0 22 -26 42 -57z m811 43 c19 -8 44 -28 57 -45
32 -43 151 -124 260 -175 l91 -43 -34 -20 c-107 -65 -197 -105 -219 -100 -72
19 -414 287 -392 307 10 10 185 89 196 90 4 0 23 -6 41 -14z m4010 -88 c45
-40 99 -87 121 -104 l39 -32 -34 -21 c-94 -57 -222 6 -237 116 -5 37 11 113
24 113 2 0 42 -33 87 -72z m-2804 17 c17 -60 9 -149 -16 -182 -39 -52 -71 -68
-135 -68 -50 0 -62 4 -86 27 l-27 27 119 120 c66 65 123 119 126 120 4 1 12
-19 19 -44z m1437 16 c84 -37 85 -39 77 -185 -6 -117 -14 -147 -27 -112 -9 23
-90 65 -138 72 -81 11 -171 -28 -216 -94 l-22 -33 -15 53 c-8 29 -22 90 -31
136 -16 80 -16 85 2 104 21 23 80 55 138 75 57 19 169 11 232 -16z m-3772 -61
c-3 -10 -18 -82 -33 -159 -16 -77 -30 -143 -33 -146 -12 -11 -103 61 -121 95
-25 46 -20 116 12 160 28 39 91 69 143 70 34 0 38 -2 32 -20z m884 -16 c49
-71 205 -195 319 -253 23 -12 42 -24 42 -27 0 -7 -202 -102 -234 -110 -33 -8
-260 108 -366 187 -44 32 -80 61 -80 63 0 11 271 175 290 176 3 0 16 -16 29
-36z m1725 -81 c13 -165 13 -158 -11 -161 -50 -7 -113 53 -113 108 0 53 63
130 106 130 8 0 14 -29 18 -77z m2226 57 c54 -15 107 -63 120 -109 26 -96 -58
-184 -161 -169 -24 3 -24 4 -27 152 -2 127 0 148 12 143 8 -3 33 -11 56 -17z
m-1916 -14 c34 -14 104 -33 155 -43 l93 -19 24 -79 c12 -44 34 -113 48 -152
l25 -73 -96 0 c-92 0 -266 31 -278 49 -16 26 -52 341 -40 341 5 0 36 -11 69
-24z m1586 -68 c-1 -143 -16 -290 -32 -299 -7 -5 -62 -25 -123 -45 -93 -31
-125 -37 -202 -38 -50 0 -94 2 -96 4 -2 3 13 75 34 160 22 85 42 176 45 202
l6 46 92 1 c91 0 184 18 234 46 15 8 30 14 35 15 4 0 7 -42 7 -92z m907 -62
c37 -24 94 -58 126 -76 31 -17 57 -36 57 -40 0 -5 -11 -22 -25 -38 -69 -82
-201 -66 -251 30 -23 45 -11 168 17 168 4 0 39 -20 76 -44z m-5096 -152 c63
-73 153 -142 239 -183 l75 -35 -103 -33 c-56 -17 -121 -35 -145 -38 -44 -7
-45 -6 -111 55 -44 42 -76 83 -96 124 l-31 62 16 74 c9 41 20 92 26 113 l10
39 38 -64 c22 -35 58 -86 82 -114z m1735 111 c10 -53 -3 -98 -37 -133 -56 -57
-152 -65 -207 -17 l-26 22 29 16 c17 8 73 47 124 85 52 39 98 69 103 66 4 -3
10 -20 14 -39z m1662 0 c52 -22 112 -83 112 -115 0 -58 -44 -164 -82 -200 -54
-50 -160 -4 -228 101 -53 82 -55 93 -30 134 50 81 145 114 228 80z m4075 -19
c21 -8 48 -22 59 -33 26 -22 57 -90 58 -122 0 -42 -40 -111 -81 -138 -45 -29
-119 -47 -123 -29 -2 6 -11 75 -20 154 -9 79 -19 149 -22 157 -10 24 71 31
129 11z m-5158 -103 c4 -21 15 -81 26 -135 10 -53 19 -101 19 -107 0 -16 -106
-14 -139 4 -29 14 -36 25 -52 79 -17 58 21 138 85 177 44 27 54 24 61 -18z
m4780 -101 c9 -72 15 -138 13 -145 -2 -12 -27 -7 -123 20 -162 46 -156 43
-112 58 83 28 163 104 189 178 6 15 12 26 14 24 2 -1 11 -62 19 -135z m-1630
70 c71 -32 140 -63 153 -68 l23 -9 -23 -34 c-43 -63 -92 -94 -156 -99 -47 -3
-63 0 -91 20 -47 32 -74 81 -75 137 -1 43 19 111 33 111 3 0 64 -26 136 -58z
m-5855 8 c0 -5 -4 -31 -10 -57 -97 -491 -112 -574 -101 -587 10 -12 29 -10
123 10 61 13 113 22 116 20 8 -9 -38 -92 -70 -126 -102 -103 -268 -72 -341 65
-29 55 -29 155 0 211 31 58 96 119 159 149 66 31 70 53 14 77 -47 20 -80 69
-80 121 0 53 49 104 110 116 63 12 80 12 80 1z m1829 -57 c44 -156 -80 -257
-211 -174 -40 26 -77 67 -66 75 2 2 53 29 113 60 61 32 114 62 120 67 18 18
34 8 44 -28z m3119 10 c46 -34 64 -67 64 -116 0 -89 -58 -144 -164 -156 l-60
-8 7 34 c8 43 35 243 35 262 0 20 85 8 118 -16z m-1888 -16 c42 -16 84 -21
175 -24 l119 -3 64 -147 c35 -82 67 -159 73 -171 l9 -24 -117 7 c-124 7 -224
19 -284 35 -35 10 -36 11 -67 117 -17 60 -35 126 -40 148 -25 101 -24 98 -5
90 10 -4 43 -17 73 -28z m1488 -84 c-22 -152 -42 -245 -54 -258 -17 -17 -118
-50 -209 -70 -77 -16 -232 -20 -254 -6 -12 8 -6 36 34 168 l48 160 122 -5
c106 -4 132 -2 191 17 38 12 80 28 94 36 14 8 28 14 31 15 3 0 2 -26 -3 -57z
m1780 -45 c17 -5 32 -13 32 -17 0 -21 -75 -103 -115 -127 -35 -20 -53 -25 -80
-20 -68 13 -112 102 -100 201 l7 54 112 -41 c61 -22 126 -44 144 -50z m-4811
-79 c4 -35 1 -70 -7 -88 -22 -53 -109 -77 -169 -47 -28 15 -101 90 -101 104 0
5 57 33 128 63 144 62 141 62 149 -32z m5059 -5 c139 -45 144 -48 144 -74 0
-15 -10 -42 -23 -61 -75 -111 -219 -104 -276 14 -28 58 -27 167 1 167 6 0 75
-21 154 -46z m1243 2 c41 -22 107 -98 121 -140 7 -21 10 -65 8 -97 -14 -193
-255 -263 -368 -107 -50 69 -45 73 69 70 l99 -3 18 48 c14 35 19 74 19 146 0
53 1 97 3 97 2 0 15 -6 31 -14z m-5038 -38 c6 -24 27 -83 46 -131 19 -49 33
-91 30 -93 -2 -3 -21 -7 -40 -11 -117 -19 -215 74 -187 178 11 41 38 69 83 85
51 18 56 16 68 -28z m-1581 -79 c0 -81 -17 -122 -60 -144 -39 -20 -73 -19
-119 5 -40 20 -114 97 -108 113 3 11 269 106 280 100 4 -2 7 -36 7 -74z m5764
-6 c89 -25 166 -50 171 -55 12 -12 -81 -99 -134 -125 -73 -35 -168 -17 -196
38 -11 19 -35 159 -35 197 0 2 8 1 17 -2 9 -4 89 -28 177 -53z m-2120 22 c68
-15 136 -124 120 -192 -9 -39 -49 -90 -86 -109 -34 -17 -108 -22 -146 -10 -19
6 -22 13 -17 29 3 12 20 85 38 163 26 117 35 140 47 133 8 -4 28 -11 44 -14z
m-1645 -66 c63 -16 112 -20 198 -18 l114 2 69 -153 c38 -85 67 -156 65 -159
-3 -2 -58 1 -123 7 -113 11 -195 30 -295 68 l-47 18 -50 127 c-28 70 -50 130
-50 134 0 4 8 4 18 0 9 -3 55 -15 101 -26z m-2336 -15 c22 -115 -103 -206
-215 -156 -44 19 -88 66 -88 94 0 8 46 26 128 49 159 46 168 46 175 13z m3598
-117 c-47 -175 -36 -160 -138 -185 -48 -12 -117 -26 -153 -32 -75 -11 -250
-14 -250 -2 1 4 20 70 44 147 37 119 46 140 62 137 11 -1 69 -5 129 -8 117 -6
197 6 285 44 25 11 46 18 48 17 2 -2 -10 -55 -27 -118z m3029 24 c0 -7 -9 -30
-21 -50 -58 -104 -182 -113 -252 -19 -19 26 -34 114 -24 141 7 19 297 -51 297
-72z m-6980 -7 c0 -154 -219 -214 -300 -82 -11 18 -20 35 -20 38 0 5 277 76
308 79 7 1 12 -12 12 -35z m2447 -176 c43 -84 79 -156 81 -160 2 -4 -15 -12
-37 -18 -122 -33 -245 93 -211 216 10 34 70 114 87 114 1 0 38 -69 80 -152z
m429 -49 c52 -14 114 -21 181 -22 l101 -2 60 -135 c51 -117 62 -135 82 -135
16 0 26 8 31 25 4 14 21 70 38 126 l31 100 67 -8 c111 -12 312 11 407 48 22 8
21 6 -35 -142 l-39 -100 -67 -21 c-142 -44 -172 -48 -388 -48 -129 0 -237 5
-279 13 -102 19 -196 53 -207 74 -5 10 -15 18 -22 18 -10 0 -147 257 -147 275
0 2 24 -7 53 -21 30 -13 89 -33 133 -45z m1414 18 c95 -50 110 -188 28 -264
-51 -48 -146 -67 -216 -42 l-31 10 24 62 c12 34 37 106 55 160 32 96 32 97 64
97 18 0 52 -10 76 -23z m-1642 -337 c52 -88 91 -164 87 -170 -8 -13 -99 -13
-147 0 -72 20 -137 102 -138 172 0 44 30 106 64 133 17 14 33 25 36 25 3 0 47
-72 98 -160z m325 10 c302 -65 581 -67 758 -5 23 9 43 14 45 13 1 -2 -30 -71
-70 -154 l-73 -151 -71 -11 c-145 -24 -319 -9 -467 41 -69 23 -71 25 -116 98
-67 109 -111 189 -105 189 4 0 48 -9 99 -20z m1124 -31 c34 -13 80 -55 99 -91
8 -15 14 -48 14 -74 0 -107 -97 -177 -210 -153 -88 19 -88 18 -26 153 30 65
60 132 65 147 11 32 17 34 58 18z m-1238 -346 c92 -168 92 -173 -3 -181 -68
-5 -106 9 -146 54 -34 39 -46 87 -32 136 9 34 79 138 93 138 3 0 43 -66 88
-147z m336 45 c84 -24 266 -34 350 -20 33 6 61 9 62 8 1 0 -25 -46 -56 -101
l-58 -100 -49 -8 c-69 -10 -133 0 -203 33 -54 26 -65 37 -115 113 -30 47 -59
94 -65 105 -11 21 -11 21 26 5 21 -9 70 -25 108 -35z m741 -65 c73 -55 92
-145 45 -211 -23 -32 -85 -62 -130 -62 -23 0 -88 17 -99 25 -4 4 138 275 145
275 2 0 20 -12 39 -27z m-656 -174 c33 -13 80 -22 117 -23 l62 -1 -16 -25
c-80 -123 -86 -131 -99 -118 -12 14 -125 188 -121 188 1 0 27 -10 57 -21z
m-131 -371 c2 -17 -81 -48 -127 -48 -97 0 -162 79 -162 195 0 66 19 114 70
184 l33 45 93 -185 c51 -101 93 -187 93 -191z m631 214 c70 -70 72 -161 5
-221 -19 -16 -50 -33 -68 -36 -43 -8 -109 9 -131 34 -17 19 -17 21 7 53 13 18
47 72 76 121 29 48 57 87 63 87 6 0 27 -17 48 -38z m-240 -353 c0 -120 -46
-204 -134 -245 -102 -48 -210 -22 -271 65 -26 37 -30 51 -30 110 0 57 4 74 28
109 15 23 32 42 37 42 5 0 27 -39 49 -86 39 -82 42 -86 68 -79 45 11 114 56
177 116 40 37 64 53 68 46 4 -7 8 -42 8 -78z"/>
<path d="M4510 6472 c0 -128 25 -322 59 -453 71 -275 189 -493 371 -682 350
-365 755 -484 1401 -412 683 77 1169 387 1433 914 95 189 144 375 153 584 l6
137 -27 0 c-23 0 -26 -4 -26 -36 0 -33 -2 -36 -24 -30 -40 10 -257 38 -321 42
-33 1 -61 7 -63 13 -4 11 -82 16 -82 5 0 -17 79 -120 122 -159 28 -25 49 -47
47 -49 -2 -3 -28 -14 -58 -26 -261 -102 -449 -415 -412 -683 l8 -59 -26 6
c-234 51 -351 59 -471 30 -160 -37 -315 -153 -377 -282 l-29 -61 -42 55 c-47
60 -135 122 -217 153 -166 62 -376 54 -642 -25 -22 -6 -23 -4 -23 53 0 228
-134 448 -334 549 -38 18 -75 34 -83 34 -10 0 -4 14 17 45 69 101 110 230 110
353 l0 72 -30 0 c-29 0 -30 -1 -30 -49 0 -48 -1 -50 -32 -57 -18 -4 -96 -10
-173 -13 -83 -4 -140 -10 -140 -16 0 -13 222 -18 287 -6 l50 9 -5 -43 c-4 -24
-14 -61 -22 -83 -15 -36 -20 -40 -63 -46 -26 -3 -91 -19 -144 -35 l-96 -28 -7
21 c-3 11 -9 94 -12 184 -6 162 -6 162 -29 162 -23 0 -24 -2 -24 -88z m3157
13 c92 -19 177 -35 190 -35 21 0 22 -3 17 -52 -6 -62 -34 -219 -40 -229 -2 -4
-51 13 -109 37 -58 24 -121 46 -140 50 -47 9 -36 20 33 34 97 20 107 44 35 86
-27 15 -61 38 -78 52 -32 26 -90 92 -81 92 3 0 81 -16 173 -35z m145 -373 c10
-10 -30 -128 -74 -215 l-29 -58 -57 44 c-104 79 -226 161 -286 194 l-60 32 44
41 c25 23 67 54 93 69 l48 28 156 -63 c86 -34 160 -67 165 -72z m-2991 66
c-17 -24 -41 -55 -52 -70 -22 -27 -20 -55 3 -62 7 -3 39 -12 71 -22 31 -9 57
-20 57 -23 0 -5 -193 -78 -237 -89 -14 -4 -62 139 -70 209 l-5 45 106 22 c58
13 116 26 128 31 13 5 25 7 26 6 2 -2 -10 -23 -27 -47z m2577 -170 c59 -39
149 -102 200 -140 l93 -70 -23 -36 c-69 -115 -131 -195 -226 -294 l-65 -67
-71 50 c-112 78 -137 103 -147 145 -21 93 -4 233 41 339 21 49 78 145 86 145
3 0 53 -32 112 -72z m-2385 -79 l48 -41 -52 -24 c-90 -42 -254 -172 -237 -189
2 -3 48 23 100 58 53 34 121 76 152 94 l56 31 24 -31 c25 -34 50 -80 66 -122
8 -22 6 -27 -19 -40 -16 -8 -79 -55 -140 -105 -60 -49 -112 -90 -115 -90 -23
0 -245 394 -230 409 2 3 59 22 126 43 67 22 124 41 127 44 14 14 52 -1 94 -37z
m191 -366 c4 -28 1 -83 -5 -123 -11 -67 -15 -74 -62 -115 -27 -25 -52 -45 -56
-45 -3 0 -42 36 -86 81 l-80 80 40 36 c69 60 229 162 236 149 4 -6 9 -34 13
-63z m1638 1 c21 -4 35 -11 32 -16 -6 -9 163 -276 202 -318 l24 -26 -75 -37
c-42 -20 -77 -37 -79 -37 -2 0 -30 33 -62 73 -32 39 -109 132 -172 205 -63 73
-112 135 -110 138 18 18 172 29 240 18z m215 -49 c87 -28 110 -30 115 -13 2 6
40 -19 86 -57 95 -82 98 -71 -41 -167 -83 -56 -92 -60 -101 -43 -18 29 -102
154 -163 239 l-56 79 42 -7 c22 -3 76 -17 118 -31z m-397 -100 c51 -66 126
-159 167 -207 40 -48 73 -89 73 -92 0 -6 -108 -44 -186 -65 l-72 -19 -32 76
c-17 43 -65 141 -106 218 -57 111 -71 144 -61 152 14 12 120 63 123 59 1 -1
44 -56 94 -122z m-1018 33 c-6 -7 -45 -98 -87 -203 -42 -104 -80 -193 -84
-197 -3 -4 -45 11 -92 33 l-86 41 24 66 c30 83 76 169 112 212 23 28 38 35 97
46 96 17 129 17 116 2z m198 -3 c5 -3 2 -21 -6 -40 -16 -38 -62 -216 -89 -342
-13 -62 -22 -83 -34 -83 -19 0 -133 26 -178 41 -32 10 -32 11 -19 37 44 86
165 385 160 394 -7 11 147 5 166 -7z m639 -146 c32 -74 74 -164 92 -200 19
-35 35 -67 37 -70 5 -11 -208 -43 -218 -33 -20 20 -78 185 -90 252 l-12 72 37
50 c40 55 75 84 87 72 4 -4 34 -68 67 -143z m-526 106 c29 -13 69 -38 90 -56
32 -26 36 -33 23 -43 -37 -28 -62 -220 -41 -315 l7 -34 -131 5 c-73 3 -134 8
-137 11 -3 3 12 63 34 134 22 70 50 172 62 226 12 53 27 97 32 97 5 0 33 -11
61 -25z m-573 1 c0 -3 -15 -28 -32 -57 -18 -29 -44 -87 -58 -130 l-26 -79 -65
44 c-98 66 -98 64 -27 126 38 34 83 62 122 76 60 22 86 28 86 20z m759 -173
c18 -32 36 -65 40 -73 5 -8 18 -16 29 -18 16 -3 23 3 28 25 3 15 11 44 17 63
l11 35 8 -60 c10 -73 23 -117 54 -174 13 -24 23 -46 21 -47 -5 -6 -187 -24
-239 -24 l-47 0 -7 57 c-10 80 22 273 45 273 4 0 22 -26 40 -57z"/>
<path d="M7185 5860 c-7 -11 31 -41 210 -169 103 -73 143 -97 152 -89 7 6 13
14 13 18 0 7 -113 84 -287 197 -45 29 -85 48 -88 43z"/>
<path d="M5170 6508 c1 -224 99 -455 261 -617 261 -261 665 -332 1023 -180
163 69 333 216 429 370 77 123 137 315 137 435 0 42 -1 44 -30 44 -27 0 -30
-3 -30 -32 l0 -33 -87 5 c-83 5 -142 24 -158 50 -3 5 -23 10 -43 10 l-36 0 44
-46 c25 -26 40 -48 34 -51 -36 -13 -94 -69 -118 -113 -29 -53 -37 -116 -23
-182 l8 -37 -32 16 c-102 51 -237 5 -290 -99 l-20 -39 -26 32 c-63 74 -192
100 -282 57 -48 -23 -110 -80 -142 -131 l-20 -32 6 47 c18 128 -93 277 -207
278 -33 0 -35 10 -9 34 44 40 80 172 63 231 -7 24 -15 31 -39 33 l-31 3 5 -64
c10 -119 -47 -219 -149 -261 -65 -27 -73 -32 -74 -47 -3 -40 -6 -41 -24 -8
-32 62 -60 179 -67 282 l-6 97 -34 0 -33 0 0 -52z m1760 -165 c-25 -92 -87
-224 -127 -272 -28 -33 -29 -33 -63 -19 -44 19 -94 75 -110 123 -41 125 64
261 198 256 59 -2 111 13 113 33 1 6 4 -1 6 -16 2 -15 -5 -63 -17 -105z
m-1291 -176 c48 -32 81 -91 81 -146 0 -22 -12 -76 -26 -120 -22 -66 -25 -83
-14 -96 7 -8 19 -15 26 -15 8 0 14 -4 14 -10 0 -14 -6 -13 -43 6 -113 58 -233
166 -298 267 -36 55 -38 62 -22 68 10 4 25 15 33 24 49 60 175 71 249 22z
m961 -107 c47 -28 95 -53 108 -56 12 -4 22 -9 22 -13 0 -16 -110 -113 -177
-155 -62 -40 -221 -113 -227 -104 -9 15 -39 182 -39 216 1 88 82 162 178 162
42 0 63 -8 135 -50z m-494 -11 c16 -5 48 -27 69 -49 32 -33 39 -48 46 -100 5
-33 17 -75 26 -92 46 -80 46 -80 32 -89 -49 -30 -307 -30 -421 0 -79 20 -146
50 -117 51 9 0 34 35 62 88 73 139 103 172 176 198 36 13 67 11 127 -7z m-377
-208 c-6 -18 -14 -30 -17 -27 -2 3 1 19 8 36 16 40 23 33 9 -9z"/>
<path d="M5726 6538 c22 -75 94 -158 169 -196 67 -34 180 -42 254 -17 67 22
149 97 184 169 15 30 27 57 27 60 0 3 -15 6 -34 6 -28 0 -35 -4 -40 -26 -12
-45 -114 -138 -169 -153 -59 -17 -141 -9 -194 17 -50 26 -110 88 -125 129 -10
28 -17 33 -46 33 -30 0 -33 -2 -26 -22z"/>
</g>
</svg>
